<svg id="Layer_1" data-name="Layer 1" xmlns="http://www.w3.org/2000/svg" viewBox="0 0 1641.05 949.3"><defs><style>.cls-1{fill:#060505;}.cls-2{fill:#cdcdcd;}.cls-3{fill:#336799;}.cls-4{fill:#fff;}.cls-5{fill:#999899;}.cls-6{fill:#b5a075;}.cls-7{fill:#343233;}</style></defs><path class="cls-1" d="M1124.86,68c1.06-1.19,2.13-2.52,3.19-3.72,13.56,3.59,27.91,2.39,41.33,6.52,12.5,2.65,24.06,8,35.89,12.62,6,4.26,10.37,10.1,15.42,15.42,6.11,7.18,13,13.69,19.54,20.47,8.5,6.91,17.14,14,23,23.39a59.92,59.92,0,0,0,2.39,6.91c.53,1.59,1.2,3.32,1.86,4.92.8,1.86,1.46,3.72,2.26,5.58.53,1.86.93,3.59,1.33,5.45.66,1.19,1.2,2.26,1.86,3.45,1.07,7.31,6.78,12.76,10.77,18.74,4.52,6.92,11,12.76,13.15,21.14.67,2,1.34,4.12,2,6.11h.66a67.51,67.51,0,0,0,3.19,9c1.07,2.12,2,4.25,2.93,6.51.93,2,2.52,4,2.26,6.51,0,13.56-.4,27.12-.27,40.67l-.8-.13c0,5.32.14,10.63-.39,16h-.8c-.4,1.59-.93,3.06-1.33,4.65-.13,2.53-.4,4.92-.53,7.31h-1.07c-.13,1.86-.26,3.86-.4,5.72-4.78-.27-9.43-.4-14.22-.54,2.26-9.83,4.79-19.67,6.38-29.63.27-12.1.14-24.06.53-36,.27-5.45-2.92-10.1-4.78-14.76-4.12-8.1-5.58-17.54-11.56-24.58-6.78-10.24-15.42-19.54-19-31.5-2.79-6.65-4.52-13.82-7.58-20.34-4-6.51-11-10.23-16.21-15.55-6.11-6.24-12.49-12.36-18.34-18.87-6.51-7-12.36-15-21-19.67C1188.92,96,1181.22,92.71,1173,91c-1.32-.4-2.65-.93-4-1.33a36.47,36.47,0,0,0-12-2c-8.51-.14-16.88-1.2-25.39-1.47-4.39-.26-8.77,1.2-13.16,1.07-13.42-.14-27,.79-40.4.13-7.45,8.24-15.95,15.28-24.32,22.46-.8.13-2.26.27-2.93.4a95.73,95.73,0,0,1-9.3,5.58c-2.79,1.46-5.45,2.92-8.24,4.39-7.31,4.52-15,8.24-22.46,12.76-5.19,2.92-10.1,6.11-14.89,9.43-5.32,4-10.63,7.84-16,11.7-4.92,3.72-8.24,8.9-12,13.55-8.51,10.77-15.55,22.6-22.73,34.16-1.86,3.59-5.18,6-8.77,7.71a56.08,56.08,0,0,0-9.3,4.65c-2.4,3.73-6.38,5.05-10.5,5.19-1.46.93-2.66,2-4.12,2.39-10.37.53-20.47-1.46-30.7-2.79-7.45,0-14.76-1.6-21.14-5.72-1.33-.93-2.79-1.72-4.12-2.52-2-.8-4.12-1.73-6.11-2.53l-.13-.4c-8.91-5.58-17.95-10.5-27-15.81-4-2.66-8.11-5.05-12-8.11-21.79-19.27-36.41-44.92-56-66.32-6.51-8.91-17.68-11.43-26.18-17.55-6.12-4.38-13.16-6.64-20.34-8-11.16-2-22.06-4.52-33.09-6.78-7.84-1.59-15.82-.4-23.66,0l-3.19,2.79c-.13.67-.4,2.13-.53,2.79-2.53.54-5.18.93-7.18,2.53a238.85,238.85,0,0,0-23.26,20.2c-5.18,1.33-10.36,3.32-15.55,4.79-6.91,1.86-13.95,3.19-20.33,6.64-5.85,3.19-11.83,6.38-17.68,9.57-4,2-6.11,6-8.51,9.44-4.25,7.17-9.7,14.09-10.89,22.59-.8,6.65-3.06,13.56-.67,20.07,2.79,8.91,7,17.28,9.17,26.45,2.39,9.83,5.32,19.54,8.11,29.24,3.32,13.16,7.84,26.05,10.5,39.34a103.71,103.71,0,0,0-20.2,2c-.14-.66-.54-2.25-.67-2.92-1.46-5-2.66-10.1-4-15.15h-1.06c0-1.73-.13-3.59-.13-5.32h-.67c-.39-2-.93-4-1.46-5.85-2.39-7-3.85-14.48-6.11-21.66a57.32,57.32,0,0,1-2.66-10.5c-.53-1.46-.93-3.06-1.33-4.65l-.53.13a70.12,70.12,0,0,0-3.19-11.43c-.8-1.73-1.46-3.32-2.26-5-1.46-4-2.53-8.11-4.12-12.09-.53-6.52-.66-13.29.8-19.81.66-4.78,1.46-9.57,1.86-14.22h.66a76.18,76.18,0,0,1,3.33-7.57c1.59-2.53,3.19-4.92,4.65-7.45,1.86-3.85,4.78-6.91,6.91-10.63,3.59-4.25,6.11-9.7,11.56-11.83a60.59,60.59,0,0,0,8-4.78c.39-.14,1.06-.14,1.33-.27,1.86-.93,3.72-2,5.58-2.92,1.06-.67,2.26-1.33,3.32-2,3.59-1.86,7-3.72,10.77-5.31l4.78-.4v-.8c1.6-.4,3.19-.93,4.78-1.33s3.19-.53,4.66-.66v-.67a45.79,45.79,0,0,0,4.65-1.33,19.94,19.94,0,0,1,2.52-.39,19.64,19.64,0,0,1,5.32-2c5.85-2.52,9.17-8.64,14.62-12a81.87,81.87,0,0,1,11.3-9c4.12-1.86,8.64-2.12,13.15-3,1.33-.94,2.26-2.53,3.46-3.86,4.12-.4,8.11-1.33,12.23-1.73,4.78-.26,9.7.93,14.35,2.13,4,1.06,8.24-.27,12.36.8a57.23,57.23,0,0,0,12.63.93l-.53,1.19c2.26,0,4.65.14,6.91.14l-.13,1.06c4.65,0,9.3.13,14,.53.93.93,1.86,1.86,2.79,2.93A54.85,54.85,0,0,1,732.52,77l.13,1.33,2.52-.53-.13,2a20.5,20.5,0,0,1,2.53-.4l.26,1.47c.53,0,1.33.13,1.73.13,1.6.66,3.19,1.19,4.92,1.73l-.14,1.19c.67-.13,1.87-.4,2.53-.53l.27,1.6,2.52-.54-.13,1.2a47,47,0,0,1,6,3.85C760.43,94,764.28,99.63,769.2,104c3.45,4.52,7,8.77,10.76,12.89,1.47,2.13,3.33,4.26,4.79,6.38h.93l-.13.93,1.59,1.6c3.19,3.59,6.65,7,9.57,10.9l.8-.14V138l.93-.27c.4.53,1.46,1.6,2,2.13l-.53.26a26.42,26.42,0,0,0,2.26,1.86h.13a29.61,29.61,0,0,0,2.79,3.19c.4.27,1.47.8,1.87,1.07l-.14,1.19c.67,0,1.86-.13,2.53-.13,0,.53.13,1.6.13,2.26,2.13,1.2,4.25,2.53,6.51,3.72v1.06a19.8,19.8,0,0,0,2.79-.66l.27,2a14.14,14.14,0,0,1,2.53-.79l-.27,2c.66-.13,2.13-.27,2.79-.4l-.13,2,1.86-1.06-.27,2.26c.67-.26,2.13-.66,2.79-.93l-.66,2,1.86-.53v1.6c.93,0,2.92.13,4,.13l-.14,1.86c.54-.26,1.86-.66,2.53-.93l.13,2c.67-.13,2.13-.26,2.79-.39v1.86a22.73,22.73,0,0,0,2.66-.93l-.27,1.59c1.87.4,3.86,1.06,5.72,1.6l-.53,1.32h4.38l-.26,1.87a25.76,25.76,0,0,0,2.79-1.2l-.27,1.86c2,.13,3.86.13,5.85.27-.13.53-.53,1.72-.66,2.39,1.19,0,3.45.13,4.65.13l-.4,1.86c.8-.26,2.26-.66,2.92-.93L865,178c1.19,0,3.45-.13,4.52-.13l-.4,1.86c.66-.27,2.12-.66,2.92-.93L871.8,181c.67-.14,2-.54,2.53-.67l.4,1.07a32.85,32.85,0,0,0,4.52,2.92c6.38,1.33,12.76,3.06,19.14,3.85,2.12.8,2.65-1.72,3.58-2.92.27-.53.93-1.46,1.2-2,2.39,1.06,5.85,1.19,6.65,4.25,2-.13,4-.13,6-.27,0-.66-.14-2-.14-2.66,1.07,0,3.19,0,4.26-.13l.13-1.46c.4.13,1.2.27,1.73.4.8-.4,2.39-1.46,3.32-2l.13-1.07c.67.13,1.86.4,2.53.53l-.13-2c.66.13,2,.53,2.65.66.14-.66.27-2.12.4-2.92.4,0,1.46.13,2,.13.66-1.46,1.33-2.92,2-4.25l.8.53c.4-.53,1.06-1.73,1.46-2.26.53-1.33,1.06-2.52,1.59-3.72l.8.53c.67-1.33,1.2-2.52,1.86-3.72.4-.8,1.07-2.52,1.46-3.32l1.2.26c.13-.53.13-1.46.27-2a14.94,14.94,0,0,0,3-4,45.56,45.56,0,0,1,3.19-3.85l-.13-1.06h1.6c-.14-.67-.54-2-.67-2.66l2,.4-.26-1.73,1.59.13c0-.53-.13-1.73-.13-2.39a9.72,9.72,0,0,0,2-.27c1.6-5,6.65-7.57,9.18-12.09l.92.4-.26-1.73,1.2.4.26-1.6,1.6-.26-.4-.8c1.46-.66,2.92-1.33,4.25-2l-.4-.8c1.6-.53,3.06-1.06,4.65-1.6l-.53-1.72c.67.26,2.13.53,2.79.79l-.13-1.86,1.73.53-.4-1.86c.66.14,2.13.4,2.79.54v-2.13a18,18,0,0,1,2.53.8l-.14-1.73,1.73.13c0-.66-.13-1.86-.13-2.52a23,23,0,0,1,2.92.13l-.27-2.13,2.66,1.07v-1.86H997l-.26-1.47,1.46.53-.13-1.86,1.86.14-.4-1.33c1.06,0,3.32.13,4.39.13l-.54-1.86c.8.27,2.26.66,3.06.93l-.66-2,1.86.4.13-1.6c.4,0,1.33.27,1.73.27a27.31,27.31,0,0,0,3.32-1.86V101c1.86-.14,3.72-.14,5.58-.14l-.8-1.46,1.87.4.13-1.86.66.26a29.2,29.2,0,0,1,3.46-1.46l-.4-1.19c1.06,0,3.19,0,4.25.13V94a8,8,0,0,1,1.73.27c.93-.53,2.66-1.46,3.46-1.86l-.14-.93c1.73,0,3.59-.13,5.45-.27V88.73a17.26,17.26,0,0,1,2.66.4l-.13-1.2c1.59-.53,3.32-1.06,4.91-1.59a10.71,10.71,0,0,1,2,.39l-.27-2c.53,0,1.73.13,2.26.13,1.86-1.59,3.72-3.19,5.59-4.65l.39-.8c.53,0,1.73.14,2.26.14a8.63,8.63,0,0,0,.27-2c2-.53,3.72-1.46,4.52-3.45h2a13.9,13.9,0,0,1,.13-2.39h1.07c1.59-1.6,3.19-3.33,4.91-4.79a24.88,24.88,0,0,1,11.7-1.06c14.09,1.33,28.31.93,42.53,2.12Z" transform="translate(-139.61 -64.27)"/><path class="cls-2" d="M649.05,88.06l3.19-2.79c7.84-.4,15.82-1.59,23.66,0,11,2.26,21.93,4.79,33.09,6.78,7.18,1.33,14.22,3.59,20.34,8,8.5,6.12,19.67,8.64,26.18,17.55,19.54,21.4,34.16,47.05,56,66.32,3.86,3.06,8,5.45,12,8.11,9,5.31,18.07,10.23,27,15.81l.13.4c2,.8,4.12,1.73,6.11,2.53,1.33.8,2.79,1.59,4.12,2.52,6.38,4.12,13.69,5.72,21.14,5.72,10.23,1.33,20.33,3.32,30.7,2.79,1.46-.4,2.66-1.46,4.12-2.39,4.12-.14,8.1-1.46,10.5-5.19a56.08,56.08,0,0,1,9.3-4.65c3.59-1.73,6.91-4.12,8.77-7.71,7.18-11.56,14.22-23.39,22.73-34.16,3.72-4.65,7-9.83,12-13.55,5.32-3.86,10.63-7.71,16-11.7,4.79-3.32,9.7-6.51,14.89-9.43,7.44-4.52,15.15-8.24,22.46-12.76,2.79-1.47,5.45-2.93,8.24-4.39a95.73,95.73,0,0,0,9.3-5.58c.67-.13,2.13-.27,2.93-.4,8.37-7.18,16.87-14.22,24.32-22.46,13.42.66,27-.27,40.4-.13,4.39.13,8.77-1.33,13.16-1.07,8.51.27,16.88,1.33,25.39,1.47a36.47,36.47,0,0,1,12,2c1.33.4,2.66.93,4,1.33,8.25,1.72,16,5.05,23.53,8.77,8.64,4.65,14.49,12.63,21,19.67,5.85,6.51,12.23,12.63,18.34,18.87,5.18,5.32,12.23,9,16.21,15.55,3.06,6.52,4.79,13.69,7.58,20.34,3.59,12,12.23,21.26,19,31.5,6,7,7.44,16.48,11.56,24.58,1.86,4.66,5,9.31,4.78,14.76-.39,12-.26,23.92-.53,36-1.59,10-4.12,19.8-6.38,29.63-3.72,0-7.44-.13-11.16-.13-5.85,5.18-10.63,11.56-16.08,17.28-9.84,0-19.94-.8-29.38,2.13-5.44,2.79-9.17,7.71-13.82,11.56-5.85,4.78-8.11,12.23-13,17.68-3.59,4-7.18,8.24-9.31,13.29-2.52,5.05-1.86,10.76-2.26,16.08-.26,7-1.33,14.09-.26,21.13,1.86,5.72,5.31,10.9,8,16.35-3.19,3.45-6.51,6.78-9.17,10.76-1.46-2-2.39-4.38-4.52-5.84-8.37-1.33-16.48,2.52-24.72,3.59-13.29-1.33-22.73-12.63-35.75-14.36a64.11,64.11,0,0,1-29.11-13.29c-8-6.38-18.6-11.7-21.13-22.33,3.59-6.11,10.23-10,17.15-11.43,11.16-3.32,22.86-4.38,34.42-6,5.45-.4,9.3-4.52,13.69-7.31,8.64-6.25,19.67-8.77,27.38-16.35,4-4.12,8.24-8.1,11.56-12.76,1.73-1.59.53-3.58-.13-5.18-2.66-5.58-7.71-9.17-12.23-13,.13-6,.4-12,.53-17.95-3.19-2.12-6.11-5.31-10.23-5.31-7.18-.27-14.62-.54-21.4,2-7.71,2.66-14.75,7-22.46,9.57s-15.82,3.72-23.53,6.11c-8.77,2.66-16.21,8.24-23.66,13.29s-8.77,14.76-15.28,20.61c-6,5-13.82,7.17-20.2,11.69-6,4.25-8.24,11.7-12.36,17.54,1.59,3.73,3.06,7.58,4.92,11.17,2.92,5.71,8.24,9.7,11,15.55,3.59,7.84,6,16.48,12.09,22.86,4.52,4.12,10.5,6.25,15.69,9.44,7,4.25,12.89,10.63,20.86,13.15,5.58,1.6,11.17,2.66,16.48,5.19,8.24,4,16.48,8.77,25.92,9.83,7.71.93,15.68.53,23.52,1.46a151.92,151.92,0,0,0,20.61.67,60.24,60.24,0,0,0-19,15.28c-9.44-4.25-19-8.64-28.58-12.49-4.12-1.33-8.24-3.32-12.62-2.39-6.12,8-8.38,18.07-13.16,26.85-12.89,24.18-27.51,47.31-42.93,69.91-2.39-26.32-6.11-52.64-4.39-79.09.67-5.18-3-9.3-5.71-13.42-4.12-5.85-8.11-13-15.42-15.42-13.82-4.25-28.84.4-42.79-3.72-3.86-1.33-8-.93-11.83-.13-1.47,10.1-.27,20.2.93,30.17,6.91,48.64,12.36,97.42,18.47,146.2a160.79,160.79,0,0,0,7.29,31c6.27,17.92.26,17.4-1,22.37-3.54,14.07-10.32,15.44-15.5,25.81-2.93,4.92-5.41,9.73-6.21,15.17-.93,6.25-3.72,11.83-6.51,17.41a16.57,16.57,0,0,1-.26,2.53,137.65,137.65,0,0,1-6.25,14.35,50.69,50.69,0,0,1-6.51,16c-.67,2.26-1.33,4.65-2,6.91-8.5,3.33-16.35,8.51-23.66,14.09-8.24-7.57-14.35-17.14-19.93-26.85-5.58-9.56-11.57-18.87-16.88-28.57a60.59,60.59,0,0,0-8.51-12.49c-6.78-7.45-14.56-15.5-21.07-23.21-7.71-9.7-18.88-35.06-14.68-35.22s26.45,6.32,38,5.26c5.58-.53,10.64-3.59,15.42-6.24,7.84-4.39,16.35-8.11,22.86-14.36,14-12.89,22.06-30.7,27.51-48.64,5.85-18.61,5.32-38.81.67-57.68-5.45-23.4-13.16-46.66-26.58-66.59-8-11.83-18.88-22.86-33.1-26.45-11.83-2.92-23.79.66-35.22,3.72A35.17,35.17,0,0,0,848.41,456c-10.63,8.38-20.86,17.68-28.57,28.84-6.52,9-8.11,20.34-10.64,30.84-1.33,6.91-2.52,14-4,20.86-2.53,10.77-1.2,21.94-1.6,32.83-.26,9.57,1.46,19,3.72,28.18q-40.07-48.24-80.94-96c-4.92-5.18-7.17-12.09-9.43-18.74-1.2-3.46-2.66-7-3.86-10.5-1.86-4.92-3.32-10.23-7.31-13.95-8-7.58-15.28-15.82-23.92-22.73-3.86-2.93-6.51-7.05-9.17-11-5.05-7.45-10.9-14.36-14-22.86-3.85-8.24-6.38-17.55-13.42-23.79-6.12-6.12-12-12.5-19.27-17.15-8.38-5.45-15.42-12.76-21.53-20.6-2.13-2.39-2.53-5.58-2.93-8.64a102.62,102.62,0,0,0-7-19.67l-.4-.66c5.71-.8,11.69-.8,16.88-3.59,4.12-2.93,6.24-7.84,8.77-12a26.94,26.94,0,0,0-20.87-14.49c-8.9-.8-17.81.53-26.71.53-2.66-13.29-7.18-26.18-10.5-39.34-2.79-9.7-5.72-19.41-8.11-29.24-2.13-9.17-6.38-17.54-9.17-26.45-2.39-6.51-.13-13.42.67-20.07,1.19-8.5,6.64-15.42,10.89-22.59,2.4-3.46,4.52-7.45,8.51-9.44,5.85-3.19,11.83-6.38,17.68-9.57,6.38-3.45,13.42-4.78,20.33-6.64,5.19-1.47,10.37-3.46,15.55-4.79a238.85,238.85,0,0,1,23.26-20.2c2-1.6,4.65-2,7.18-2.53.13-.66.4-2.12.53-2.79Z" transform="translate(-139.61 -64.27)"/><path class="cls-3" d="M652.9,163.82c-.53-8.37,4.66-15.55,8.24-22.73,6.92.93,13.83.54,20.74,1.33,5.71,1.07,8.64,6.78,10.23,11.83,3.72,13.56,3.06,27.78,2.79,41.74-1.33,18.87-.93,38-1.86,57-.26,12.36-1.06,24.86-.53,37.22,2,19.53,3.46,39.07,5.58,58.48,4.65-5.59,9.31-11.3,14-17,3.72-4.65,5.45-10.5,8.5-15.55,2.26-3.85,6.25-6.24,9.71-8.77,7.17-4.78,10.63-13.29,17.54-18.34,6.25-6.11,15.55-6.91,23.79-6,4.65.66,9.7-.53,14.22.8,8,8.1,16.35,16.34,21.8,26.58,2.39,12.23,2.92,24.85,4.92,37.21.93,4.26,5.18,6.38,7.71,9.44,6.11,5.58,7.17,14.62,13.15,20.2S845,389.1,851.47,394.15c9.83-1.46,15.95-9.83,23.66-15,2.26-2,5.45-1.46,8.24-1.73-.53-7.57,1.06-14.88,2.92-22.06-.53-5.85-2.66-11.43-2.79-17.28-.27-3.72,1.59-6.91,2.79-10.23-4.65-6.78-3.06-15.28-3.32-23-.53-8,2.52-15.82,7.31-22.07,11.69-.53,20.86,8,29.64,14.49,6.11,4.39,7.17,12.23,8,19.14,5.72.27,10.77-3.06,16.48-3.46,6.25-.93,13.16-.26,18.61-4.12a43.06,43.06,0,0,1,19.94-7.17c11.43-2.66,24.45-2.4,34,5.05,5,3.59,11.7,6.24,13.56,12.76-4.26,7.44-13.29,8.5-21,9.3-6.78.8-13.83-.66-20.6.8-3.86,4.25-6.52,9.43-9.71,14.09-8.63,3.19-17.94,5.18-25.78,10.1-5.85,3.32-9.57,9.3-13.29,14.62-1.86,2.39-1.6,5.45-1.86,8.24-.27,9.7-1.86,19.4-1.2,29.1,3.32,7.85,10.77,13.56,12.1,22.2.79,4.78,2.12,9.57,2.12,14.35-1.59,4.52-5.71,7.71-10,9.84-2.79,1.73-6,0-8.9-.8-8.64-2.52-16.21-7.57-23.26-13-6.38-6.78-9.3-15.95-12.23-24.46-5.58,2.66-10.36,6.91-16.21,9-4.12,1.73-8.37-.67-12.63-.67-6,.8-11.83,2.8-17.94,2-5.32-.53-10.77-.67-16.08-.67-4.92-6.11-12.63-8.77-18.34-13.95-5.19-4.52-10.24-9.17-15.55-13.69-6.25-5.32-10.5-12.49-15.55-18.87-5.45-7.05-11.3-14.36-13.83-23.13-1.06-7.44.53-15.15-.79-22.59-.8-4.52-3.19-8.64-5.19-12.63-7.44,5.45-11.29,14.09-16.34,21.53-2.93,4.52-6.78,8.64-8.91,13.69-1.86,4.92-2.26,10.37-4.39,15.28-2.39,5.45-7.31,8.91-10.1,14.09-2.92,7.18-1.46,15.95-6.64,22.33-2.39,2.79-4.79,6.12-8.11,7.84-7,2.93-14.75,4.92-22.46,4a30.54,30.54,0,0,1-19.54-6.65c-1.46-3.72-1.59-7.7-2.12-11.69a130.34,130.34,0,0,0-3.59-22.46c-1.6-6.78-8-11.57-9-18.61a89.53,89.53,0,0,1-2.66-27.91c.53-55.42,1.46-110.85,2-166.27Z" transform="translate(-139.61 -64.27)"/><path class="cls-3" d="M1137.09,291.28c6.78-2.53,14.22-2.26,21.4-2,4.12,0,7,3.19,10.23,5.31-.13,6-.4,12-.53,17.95,4.52,3.85,9.57,7.44,12.23,13,.66,1.6,1.86,3.59.13,5.18-3.32,4.66-7.58,8.64-11.56,12.76-7.71,7.58-18.74,10.1-27.38,16.35-4.39,2.79-8.24,6.91-13.69,7.31-11.56,1.6-23.26,2.66-34.42,6-6.92,1.46-13.56,5.32-17.15,11.43,2.53,10.63,13.16,15.95,21.13,22.33a64.11,64.11,0,0,0,29.11,13.29c13,1.73,22.46,13,35.75,14.36,8.24-1.07,16.35-4.92,24.72-3.59,2.13,1.46,3.06,3.85,4.52,5.84a56,56,0,0,1-20.86,22.6,151.92,151.92,0,0,1-20.61-.67c-7.84-.93-15.81-.53-23.52-1.46-9.44-1.06-17.68-5.85-25.92-9.83-5.31-2.53-10.9-3.59-16.48-5.19-8-2.52-13.82-8.9-20.86-13.15-5.19-3.19-11.17-5.32-15.69-9.44-6.11-6.38-8.5-15-12.09-22.86-2.79-5.85-8.11-9.84-11-15.55-1.86-3.59-3.33-7.44-4.92-11.17,4.12-5.84,6.38-13.29,12.36-17.54,6.38-4.52,14.22-6.65,20.2-11.69,6.51-5.85,8-15.56,15.28-20.61s14.89-10.63,23.66-13.29c7.71-2.39,15.82-3.45,23.53-6.11s14.75-6.91,22.46-9.57Z" transform="translate(-139.61 -64.27)"/><path class="cls-3" d="M572.23,281.71c8.9,0,17.81-1.33,26.71-.53a26.94,26.94,0,0,1,20.87,14.49c-2.53,4.12-4.65,9-8.77,12-5.19,2.79-11.17,2.79-16.88,3.59l.4.66c-8.24-1.59-16.62.93-24.72-.93-3.73-.27-7.71-1.86-11,.27-4.25,2.12-8.1,5.45-13,6l-13,1.59c-1.59,1.2-3.19,2.26-4.65,3.46.67,2.39,1.46,4.65,2.26,7,7.71,2.13,15.55,3.72,23.26,5.72,6.12,1.33,11.3,5.05,16.62,8,4.25,2.39,9,2.66,13.68,2.92l.14.27.66-.8A99.33,99.33,0,0,1,603.33,356c6.51,4.91,14.62,7.17,20.87,12.22,8.63,8.78,13.15,21.27,12.89,33.5a87.89,87.89,0,0,1-11.3,18.87c-8.37,3.32-16.48,7-23.92,12.23-3.72,2.39-7,5.45-10.9,7.71-4.92,2.12-10.37,2.52-15.29,4.52-4.78,2.39-8.1,8-13.95,8.1-16.75,1.73-33.63,4.92-50.51,3.19a50.23,50.23,0,0,1-12.62-6.11c-2.79-3.06-4.65-6.91-7.05-10.24-3.32-4.65-8.37-7.7-11.16-12.62-2-3.59-3.19-7.44-4.65-11.3,2.79-4.25,6.64-8,11.56-9.44,7.31-2.25,14.62-4.12,21.8-6.51,8.9-2.79,18.21-2.52,27.38-3.45a14.56,14.56,0,0,1,10.89,2.92c-4.11,2.26-8.77,3.59-13.15,5.58-3.86,1.86-5.32,6.12-6.78,10,3.32,2.53,6.78,5.05,10.23,7.58a137.1,137.1,0,0,0,16.62-2c6-2.39,10.1-7.57,15.81-10.23,6.38-3.19,12.36-7.84,15.95-14.09.53-3.59.93-7.71-1.46-10.77-2.26-3.72-6.91-4.78-10.63-6.77-5.19-2-9.31-5.72-14-8.78-9.3-4.65-19.94-5.31-30.3-5-11.83-6.24-25.52-6.91-38.68-8.1-9-.93-17-6.38-23.26-12.63-2.92-5.05-6.78-11-4.38-17,1.33-4,2.79-8.51,6.78-10.5,14.35-7.71,28.7-15.55,43.06-23.39,6-3.19,12.89-3.86,19.27-6s13-2.26,19.54-3.73a103.71,103.71,0,0,1,20.2-2Zm-2,61.27M558.8,311.22" transform="translate(-139.61 -64.27)"/><path class="cls-1" d="M569.84,311c8.1,1.86,16.48-.66,24.72.93a102.62,102.62,0,0,1,7,19.67c.4,3.06.8,6.25,2.93,8.64,6.11,7.84,13.15,15.15,21.53,20.6,7.31,4.65,13.15,11,19.27,17.15,7,6.24,9.57,15.55,13.42,23.79,3.06,8.5,8.91,15.41,14,22.86,2.66,4,5.31,8.1,9.17,11,8.64,6.91,16,15.15,23.92,22.73,4,3.72,5.45,9,7.31,13.95,1.2,3.46,2.66,7,3.86,10.5,2.26,6.65,4.51,13.56,9.43,18.74q40.88,47.65,80.94,96c5,14,9.57,28.31,17.28,41.07a42.13,42.13,0,0,0,15,15.55c4.39,2.92,8.72,3.61,13.11,6.66,6.51,10.63,5.63,26.43,15.86,34.81,6.52,7.71,12.36,15.81,19.14,23.26a60.59,60.59,0,0,1,8.51,12.49c5.31,9.7,11.3,19,16.88,28.57,5.58,9.71,11.69,19.28,19.93,26.85,7.31-5.58,15.16-10.76,23.66-14.09.67-2.26,1.33-4.65,2-6.91a50.69,50.69,0,0,0,6.51-16,137.65,137.65,0,0,0,6.25-14.35,16.57,16.57,0,0,0,.26-2.53c2.79-5.58,5.58-11.16,6.51-17.41.8-5.44,1.6-11.16,4.52-16.08,9.17-11.56,12.85-28.71,19-41.73.4,0,.18,2.26.58,2.26,4,5.31,6.11,12.76,13.16,14.88-.27,1.33-.93,3.72-1.2,4.92-.13.27-.26.8-.4,1.2-.66,1.59-1.33,3.45-2,5.18a37.13,37.13,0,0,1-1.73,4.12c0,.53.13,1.33.13,1.73l-1.72.53c.13.4.26,1.2.4,1.73-.4.66-1.33,2.26-1.73,2.92-.8,1.2-1.46,2.26-2.26,3.32-1.2,2.53-2.53,5.06-3.46,7.58h-.79l.26,1.6-1.46-.27c0,1.06,0,3.06-.13,4.12l-.93-.13c-.14,3.58-.4,7.17-.54,10.76-.13-.13-.53-.13-.79-.13-.4,1.59-.93,3.19-1.33,4.78a27,27,0,0,0-.4,3.33l-1.46.13c.13.66.4,1.86.53,2.53l-1.86.13c.13.53.4,1.86.53,2.39l-1.6.13c0,1.07-.13,3.19-.13,4.26l-1.33-.27v1.86a44.88,44.88,0,0,0-1.59,6l-.4.27c-1.06,2.39-2.53,4.65-3.86,7,.67.67,2,1.86,2.53,2.39,11.56-1.19,23.13.27,34.69-.26,7-.4,14.22.26,21.26-.93,7,1.19,14.23.66,21.27.8,3.19,0,6.38.39,9.3-.8,3.59-.4,7-.53,10.64-.8,4.78-2.26,9.7,1.2,14.62.4,2.65-.53,5.31.4,8.1.93,2-.66,3.46-2.39,5-3.72,1.07,4.92,6.25,2.52,9.57,2.26,6.52-1.33,13.43-.93,20.07-1.07,1.2-.79,2.26-1.59,3.46-2.39,3.19.8,6.38,1.46,9.57.4a72.14,72.14,0,0,0,7.71,2.26c2.12-1.73,4.65-1.33,6.91-.13,6.38.26,13-2.93,19,.13a29.77,29.77,0,0,1,4.92-5c.66,1.73,1.46,3.46,2.13,5.18.8.27,2.39.8,3,1.07,5.59-2.26,11.57-.8,17.42-1.73,4-.8,8-.53,12-.53,2.26.66,4.38,2.66,6.77,1.86a33.71,33.71,0,0,1,13.16-.67c5.32,2.66,11.3,2.79,17.15,2.4,4-2.93,9.17.13,13.55-1.73a3.83,3.83,0,0,1,5.32,1.06c.8,1.2,1.59,2.26,2.39,3.32l.93.14-.53,1.46c4.39.53,10-3.46,13,1.33,2.66-.27,5.31-.4,8-.53,3.86-1.47,8-.8,12-.93,3.59,0,7.45-.8,10.77.93,3.45.53,7.31,1.33,10.63-.67,5.19.13,10.5-.93,15.69,0,.26.53.79,1.46,1.06,2a49.09,49.09,0,0,1,5.71,3.18c2.26-.13,4.52-.26,6.78-.53,5.45-1.19,12.49-2.79,17,1.6a37,37,0,0,0,6.65-.14c5.58-3.05,11.56,1.33,17.41.14,7.31.53,14.62.13,21.93-.14v-.79h5.32v1.06c4.38-1.59,9-1.59,12.76,1.46a35.83,35.83,0,0,0,5.18-1.19c6.64-.54,13.29-.27,19.94-.8,5.84-.4,10.89-3.45,15.94-6.11,7.45-.4,15.29,1.06,22.07-2.53.13-2.26-.67-4.92,1.73-6,1.46-1.06,2.79-2,4.12-2.92,9.17-3.59,19.27-.8,28.7-3.06l-.26-1.59,1.73.26-.27-1.59h4.12l-.13-.94c2.66,0,5.31-.13,8-.26l-.26-1.6,1.59.4v-1.19a34.93,34.93,0,0,1,11.17-1.73c1.32-1.6,2.79-3.06,4.11-4.52a60.65,60.65,0,0,0,8.11-2.13,18.91,18.91,0,0,1,7.58-7.57c7.18-3.86,13.69-8.91,21.4-11.7,1.33-.53,2.66-1.06,4-1.73a27.84,27.84,0,0,1,9.84-1.72c2.92-1.6,5.58-4,9.17-4.26,4.39-1.59,9.17-1.06,13.69-.93l-.13-1.06c4.12-5.85,12.62-2.13,17.94-6a8.79,8.79,0,0,1,4.78-2.79v-.4c3.46-.13,7.18.53,10.1-1.6h4.26c.8-.79,1.73-1.59,2.79-2.52a101.42,101.42,0,0,0,10.76-1.46v-.8a24.36,24.36,0,0,0,6.12-3.19c1.86-.13,3.59-.27,5.45-.27a25.52,25.52,0,0,1,2.52-1.33c.53-.66,1.46-1.72,2-2.39,4.65.13,9.3-.4,14-.4l3.72-1.06c3.59,4.25,11.43,4.52,15.15.4,1.6,0,3.33,0,4.92.13,1.73.67,3.46,1.2,5.19,1.86a21.23,21.23,0,0,0,2.79.93c3.32,2.26,5.85,5.45,8.77,8.11v6.91a29.35,29.35,0,0,0,4.12,5.72c.66.13,2,.26,2.66.4l-3.19,4.38c.93,1.2,2,2.39,3,3.59,1.33,3.72,1.47,8.9-2.65,10.77-.14,1.72-.27,3.58-.27,5.44-2.13,2.13-4.25,4.52-6.51,6.38-.13,1.33-.13,2.66-.13,4a82.74,82.74,0,0,1-6.78,5.18l.26.8c-2.39.53-5,.93-6.51,3.06-6,6.91-13,12.76-19.4,19.27a12.24,12.24,0,0,1-4.39,2.53c-2.13,1.46-3.86,3.45-6.12,4.65-2.92.93-5.84-.13-8.5-1.2a38.26,38.26,0,0,0-10.37,6.91c-2.92,2.53-4.91,8-9.7,6.38-2.13,2.26-4.39,4.25-6.25,6.65-.93.13-2.65.13-3.59.26a16.28,16.28,0,0,1-3.85,2.93c-1.33-3.32-4.65-2.13-7-1.46-4.52,3.58-9.84,6.38-13.16,11.16l-.93.13.13,1.07a12.6,12.6,0,0,0-1.59,1.33,13.5,13.5,0,0,0-1.33,1.72c-1.47,0-2.93.13-4.39.27-1.46,3.32-5.32,2.26-8,2.66-3.86,5.31-10.24,7.17-15.42,10.76l.13.93h-1.59l.26,1.73a33.16,33.16,0,0,0-3.59-.27c-1.06,1.07-2.12,2.4-3.32,3.46-5.71,2.92-10,7.84-15.15,11.56-1.6,1.73-3.19,3.33-4.92,4.92a85.76,85.76,0,0,0-11.56,0V848l-1.6-.39c0,.66.14,2,.14,2.65h-5.32l.27,1.46h-1.46a13.81,13.81,0,0,0-.14,2.4c-3,.13-7.18-.93-8.77,2.66l-4.92.79a45.56,45.56,0,0,1-5.71,4.26,45.35,45.35,0,0,0-2.26,4.52h-2.26c.13,1.06.4,3.32.4,4.38a13.69,13.69,0,0,0-4,3.85c-6.25-.26-12.36-.53-18.48-.53.14,4.92-4.91,1.87-7.7,2.93-3.86,1.33-8,1.33-12.1,1.06-3.32-.93-6.78-1.73-10.1-2.66-2,2-4.65,2-7.17,1.73-.27-.93-.8-2.66-1.07-3.59a15.82,15.82,0,0,1-7-3.06,47,47,0,0,1-11.43-.53c0,3.46,1.72,7.44-.67,10.64-.13,1.72-.26,3.58-.4,5.31.93,1.07,1.87,2,2.79,3.06.27,2.66.8,5.85-2.39,7-1.06,2.13-2.12,4.39-4.12,5.85v1.33l-1.73,1.2a21.68,21.68,0,0,1-1.59,1.86h-.13c-.54.53-1.6,1.33-2.13,1.86v.26a20,20,0,0,1-1.73,1.33,12.24,12.24,0,0,0-1.19,1.33,20.28,20.28,0,0,0-4.39,3.86c-2.26,2.26-5.18,3.45-7.84,5.18a111.07,111.07,0,0,1,10,10.76c.13.67.13,2.13.26,2.93,1.6,2,3.06,4.12,4.52,6.25a30.77,30.77,0,0,1,3.59,6.91c.53,2.12.93,4.38,1.46,6.64.67,4.12,1.46,8.51.53,12.5-2.65,3.19-2.65,7.31-3.59,11.16a59.26,59.26,0,0,1-6,8.37c-.93,1.2-1.86,2.4-2.79,3.73-1.33,1.06-2.66,1.86-4,2.79-.8,1.32-1.73,2.65-2.53,3.85a92.56,92.56,0,0,0-12.09,10.77c-4.92,3.19-11.17,1.33-16.62,2-.4.53-1.33,1.59-1.72,2.13-.27.39-.94,1.19-1.2,1.59-4.26,0-8.51.4-12.49-.93-2.53,1.46-6.39,3.85-7.85-.13-2.92,0-5.84.4-8.24-1.2-1.46-.26-2.92-.4-4.38-.66v-.67c-2.66-.26-6.38.4-7.45-2.92l-6.24-.4c-2.93-3.06-6.25-5.71-9.31-8.64a29.07,29.07,0,0,0-2.52-1.73c.13-.79.13-2.39.26-3.19-4.25-3.05-4-8.9-6-13.29-.4-1.59-.66-3.19-.93-4.65-.66.13-1.72.4-2.39.53l.13-1.73-.93-.26c-.53-.4-1.46-1.07-2-1.46a21.67,21.67,0,0,1-1.6-6.38l-1.06.13a81.43,81.43,0,0,0-.13-16.08h-.93V942l1.33.13-.53-1.73,1.72.54c.14-3.72,2-9-3.19-10,.14-2.26-.13-4.92,2.66-5.58.93-1.73,2-3.46,3.06-5.06a8.15,8.15,0,0,1,3.72-5.71c.53-1.73,3.06-3.85.4-5l-.13-.8c-4.12-.26-8.64.8-12.63-.93-6.38-.13-12.76.27-19.27-.26.13-.67.13-2,.26-2.66H1329l.13-1.6a11.11,11.11,0,0,1-2.26.27c-.66-2-1.46-3.86-2.12-5.71-4-2.93-5.45-7.85-9-10.9.4-4.66-.13-9.44-3.72-13a4.88,4.88,0,0,0,.26-1.46c.53-.27,1.46-.67,2-.93,4.52-2.26,2.12-8.64,2.79-12.76-6,0-12-.93-17.94.4s-12.5.53-18.61,1.46c-9.17,1.33-18.61-.26-27.78,1.46-2.39.14-3.19,2.93-4.52,4.39-7.71,1.73-15.28-2.53-22.86-.13a27.74,27.74,0,0,0-1.73-2.53c-13.29-.27-26.71-.53-40-2l-1.73-.67c-15.68.13-31.5-.13-47.32-.13-7.84,1.06-15.94,1.06-23.92,1.73-6.78,2.39-14.49-.53-21.4,2.12-14.62,1.07-29.24-.4-43.86.53-3.45.8-7.57,2.26-10.76-.13a39.59,39.59,0,0,0-3.86-1.06c-5.31-1.2-11.29,1.06-16.08-2-5.71-.14-11.56-.27-17.14,1.19a25.34,25.34,0,0,0-13.3-2c-4.25,1.59-8.77.26-13.29.66-8.9.8-17.67-.66-26.58-.66-12.89,1.46-25.78.53-38.67.8-2.4-.14-4.66.92-6.92,1.59-1.32,1.2-2.52,2.39-3.85,3.72a17.56,17.56,0,0,1-7.84-.93c-2.39-.13-4.92.27-6.91-1.33-15,.13-29.91-1.06-44.93-.26-1.86,0-3.58.79-5.31,1.33-1.07,1.32-2.26,2.65-3.46,4a53.35,53.35,0,0,0-11.3,0c-1.59-.79-3.32-1.73-4.91-2.66-5-.26-10.1-.13-15-.26a52.71,52.71,0,0,0-3.46,4.12c-3.45,3.05-7.44.93-10.9-.93-9.7-.27-19.53,0-29.24-.27a17.89,17.89,0,0,0-5.31.93,49.27,49.27,0,0,1-10.77-.53c-2.39.8-4.65,1.73-7,2.66l-.27.53c-.79.4-2.39,1.33-3.19,1.86-1.33-.8-2.52-1.46-3.85-2.13-1.6-1.32-3.19-2.78-5.32-2.39-5.85.27-11.56.4-17.41.67-3.45,1.33-7.18.79-10.76,1.19-2-2.79-4.39-5.31-6.52-8.1-.93.13-3.05.26-4,.26-10.37,3.19-21.4-.13-32,1.33-6.12-1.06-12.63,1.06-18.48-1.33-4.38-.26-8.9-.4-13.29-.26-5.85.39-11.7-.93-17.41,0-.67,2.12-.4,4.65-2.13,6.24a71.25,71.25,0,0,0-15,18.34c-3,2.93-6.24,5.72-9.3,8.77-.4-.13-1.46-.26-2-.39l.13,1.72h-4v1.07c-3.05,0-6.38-.67-8.9,1.19-6.38-.93-12.36,1.07-18.48,2a24.59,24.59,0,0,1-4.52,1.19,5,5,0,0,0-2.52,7.18,22.65,22.65,0,0,0,5.18,2.13v2.39a13.74,13.74,0,0,0,2.26-.4c.67,1.46,1.33,3.06,2,4.52l.93-.4c.53,1.6,1.06,3.19,1.72,4.79a13.6,13.6,0,0,1,4.39,3.85l2.39,3.19c1.07.8,2.13,1.46,3.32,2.26-.13,3.59-.53,7.71,2.4,10.5.26,1.46.53,2.92.79,4.52a12.85,12.85,0,0,1,.54,9.17c-.8,1.73-1.86,3.32-3.86,3.72,0,2.53,0,4.92.13,7.31a41.72,41.72,0,0,1-3.45,3.46c.93,6.24-5.32,9.43-8.91,13.42-1.86.66-3.85,1.33-5.71,2-2,2.13-4,4.26-5.85,6.38l-4,3.59c-3.05-.4-4.91,1.86-7.31,3.06-4.38.13-9,1.33-13-.93-1.33-.4-2.66-.8-4-1.33-6.25.67-12.36-1.2-18.74-.67-3.32-.53-5.58-4.38-9.17-3.85-1.06,0-3.32.13-4.38.13-2.26-3.32-6.52-3-9-5.71a36.09,36.09,0,0,0-5.72-5.32c0-.66-.13-2-.13-2.66-3.46-2.92-6.51-6.24-9.7-9.3v-4.12c-4.92-3.85-5.32-10.5-7.45-15.95-.13-5.32-1.32-10.9.67-16.08,0-2.79,0-5.45.13-8.24a31.39,31.39,0,0,0,2.53-1.86,32.56,32.56,0,0,1,4.38-5.19c0-.79.14-2.25.14-3.05,2-1.73,3.85-3.72,5.84-5.58-.53-3.06-3.59-4.39-5.45-6.38-2.39.79-4.91,1.72-7.31,2.52.14-1.33.54-3.85.67-5.18-1.06.26-3.19.66-4.25.8-.14-.54-.27-1.73-.4-2.27-3.46-.66-2.66-4.51-2.93-7-1.19-2.79-2.65-5.45-4-8.11l-1.2.14.53-1.47c-2.39-3.85-6.91-3.18-10.9-2.92l.14,1.46-.93.14c-.4,2.12-1.47,3.72-3.73,4.12-.79-.54-2.39-1.6-3.19-2.13-.13-.8-.53-2.26-.66-3.06-2.26-.4-4.65-.66-7-1.06a45.54,45.54,0,0,0-6-.8c-2.12-2-4.25-4-6.51-5.71v-1.07h-1.73c-3.19-2.92-7.17-4.91-11.16-6.77L369,864.12c-2.26-1.07-4.65-2.13-6.91-3.2-1.06-1.19-2.13-2.39-3.32-3.58a7.08,7.08,0,0,1-4.52-2.26,25.94,25.94,0,0,1-5.45-4.65h-3.19l-.13-1.47a15.6,15.6,0,0,1-2.4.27l-.39-1.59a12.08,12.08,0,0,0-2.13.39,49.26,49.26,0,0,1-3.46-4.12c-1.59-.13-3.19-.13-4.78-.26l.13-1.2-.93-.26a16.38,16.38,0,0,1-1.59-1.47c-.4-.4-1.33-1.06-1.73-1.46.13-.53.26-1.46.4-1.86a4.23,4.23,0,0,0-4.92-.4v.27a16.18,16.18,0,0,1-4.39,6.64c-2.39.67-4.91-.13-7.31-.13a40.66,40.66,0,0,0-7-6.51h-2.66c-4.25-4.92-9.7-8.64-14.35-13-2.79-2.12-5.72-4-8.51-6-.4-.4-1.19-1.06-1.59-1.46l-.14-1.06-2.52.53.4-2-1.73.4.26-1.06a3.11,3.11,0,0,1-3.45-3.06H269.2c-6.78-6.64-14.62-12.36-21.13-19.27-1.33-1.33-2.8-2.66-4.13-3.85a42.42,42.42,0,0,1-3.85-2.93c-3.59-3.45-7.31-6.91-10.63-10.63-.93-.8-1.86-1.59-2.79-2.52-3.72-3.46-7.31-6.92-10.64-10.64a38.16,38.16,0,0,1-6.51-8.1c-1.33-1.33-2.79-2.53-4.25-3.86-.53-1.33-1.06-2.52-1.6-3.85-.53-1.86-1.33-3.73-2-5.58a40.83,40.83,0,0,0-4.12-2.66,12.38,12.38,0,0,1-4.12-2.66c-1.2-.8-2.26-1.46-3.46-2.13l.4-1.2c-.4,0-1.19.14-1.59.14l.26-1.07a25.61,25.61,0,0,0-6.64-4.51,28.3,28.3,0,0,1-6.11-4.39c-3.06-3.19-6.25-6.25-9.31-9.44a36.69,36.69,0,0,1-6.51-1.72c-2-.14-4.12,0-6.12-.27a96.42,96.42,0,0,0-7.44-7.31c.13-4.52-3.59-7.18-6.11-10.37a11.3,11.3,0,0,1,.4-2.12h-1.6c.13-2.53.27-4.92.27-7.45.4-.79,1.06-2.39,1.46-3.19.53,0,1.46.14,1.86.14.66-1.33,1.46-2.66,2.13-4h3.72l-.27-1.6.93.14c3.86-4.79,7.45-9.7,11.83-14,1.46-.66,2.93-1.46,4.39-2.26,2.66.93,5,2.79,8.1,3.06v-6a5.83,5.83,0,0,1,1.47.26l-.14,1.2,2.13,1.6c1.06-.4,3.46-1.2,4.65-1.6l-.13,1.2c3.72-.27,3.32,3.85,4.39,6.11A13.62,13.62,0,0,1,198.49,667c1.73-2.39,5.45-1.86,5.72,1.33,2.25,0,4.51,0,6.91-.13a53.53,53.53,0,0,1,7.71,6.78c.39,0,.93.13,1.32.13,2,.8,4.12,1.46,6.12,2.26,1.33.13,2.79.4,4.25.53,1.33,1.46,2.79,2.92,4.12,4.25,2.79,2.4,6.51,2.13,9.57,3.46,1.06,3.32,4.52,2.92,7.31,2.92a23.68,23.68,0,0,1,1.33,2.53l1.06-.27v1.46c2.66-1.86,5-.79,6.78,1.6l-.26,1.06c5.05-1.86,7.84,2.66,11.29,5.45,2.39-2.26,4.26-1.33,5.45,1.33,2.39.13,5.58-.93,6.51,2,.27.4.8,1.33,1.07,1.73,2.12,0,4.52,0,5.71,2.26,1.33.53,2.79,1.2,4.12,1.86.53.54,1.6,1.33,2,1.86l-.27.4c2.39.53,6.11-.53,7.18,2.66,3.45,2.39,6.78,5.18,10.9,6.78,2.39.13,4.91.4,7.31.53v.67c1.46.79,2.92,1.86,4.38,2.79,2.93.39,8-1.47,8,3L335,728v1.06a35.11,35.11,0,0,1,7.44,5c2.52.27,5.18.67,6.78,2.93l4.38.39-.13,1.07a39,39,0,0,1,8.64,2.26c3.32,1.86,7.18.39,10.77.79,2.26,1.07,4.25,2.4,6.38,3.59,3.72-.13,7.17,1.6,10.5,2.79,2.52-2.12,4.65-.53,6.64,1.33,3.19,0,7.71-1.46,8.24,3.06h4.92l-.4-1.46c2.92-3.59,7.58-3.19,11.56-2.13,8.24,2.53,17.41-1.6,25.39,1.86,10.23.4,20.33-.8,30.43-1.73,5.05-.26,10.5-1.59,15.16.93,1.86,1.2,4.12.8,6.11.67,3.32-1.6,7-1.07,10.63-1.07,8.51.14,16.88-3.85,25.12-.66,4.79,2,10.37-.8,14.89,2.39,6.24,2.13,13.16-.13,19.67.93,2.13,2,4.92,1.33,7.57,1.2l-.26-.93c3.59,0,7.18,0,10.9-.13v1.06c5.84,2.52,12.36.8,18.6,1.59a26.43,26.43,0,0,0,2.93,2.66c6.78-2.39,14.22-1.73,21.4-1.59,1.72,1.06,4,2.66,6.11,1.59a48.92,48.92,0,0,0,4.78-6c1.47.53,2.93.93,4,2.26,1.46-.13,2.93-.4,4.52-.53v-1.06h6.65v2.52l1.59-.13-.26,1.73c9.7-1.86,20.2-2.93,29.63.26a84.38,84.38,0,0,1,14.09-.8l.14-.93c5,.14,10.1,0,15.15.27a32.79,32.79,0,0,0,7.84,2.13c4.92-2.26,10.37-1.2,15.55-1.47l.13-.79c.8,0,2.53-.14,3.46-.14,1.59.8,3.32,1.6,4.91,2.4,1.47.13,2.93.13,4.52.26a37.33,37.33,0,0,1,3.46-2.92c1.73.93,3.45,1.73,5.18,2.66,5.45.26,10.77-.67,16.08.8,2.8.66,5.45-.27,8.24-.54,4.39-.66,8.78-.26,13-.4a19,19,0,0,0,2.53-.93c6.77-.79,13.42.54,20.06,2.13.8-1.73,1.47-3.59,2.26-5.32,2.13.54,4.26,1.2,6.38,1.73,4.26,0,8.64.13,12.9-.66a8,8,0,0,0,1.86-.8c3.45-1.86,7.44-1.06,11.16-1.33,3.19,0,6.65-.53,9.57,1.33,2.13,0,4.39,0,6.51-.13a44.64,44.64,0,0,0,4.12-2.66H877c1.19.93,2.39,1.73,3.59,2.66,2.26.13,4.51.4,6.77.53-2.52-3.59-5.18-6.91-7.57-10.5-.4-.67-1.2-2-1.6-2.53-.93-2-1.86-3.85-2.65-5.71h-.67c-.66-1.46-1.33-2.79-1.86-4.12l-.53-.14c-2-2.65-4.25-5-6.25-7.7l-.93-.14v-1.46l-.66-.13c-1.86-2.26-3.86-4.52-5.59-6.91-1.19-1.6-2.52-3.06-3.58-4.79l-.53.14c-.27-.4-.94-1.33-1.33-1.86-1.07-1.6-2.13-3.33-3.19-4.92h-1.07v-1.33l-.79-.13a24.44,24.44,0,0,1-6.25-11.83h-.93c0-1.73-.14-3.46-.14-5.32H840v-4.12l-1.2.26c-.13-.92-.13-2.78-.26-3.72-.53-1.19-1.2-2.52-1.73-3.85-.53-1.86-.8-3.85-1.2-5.85l-.79.14c-.14-.93-.27-2.66-.4-3.46-.53-1.33-1.07-2.79-1.6-4.12s-.8-2.79-1.06-4.12c-2.26-2.79-4.65-5.32-7-7.84-.93-1.2-1.86-2.53-2.79-3.72-1.19-1.6-2.52-3.19-3.72-4.79l-.93.13v-.93a9.82,9.82,0,0,0-1.46-1.86l-.53-.13c-2-2.52-4.12-4.92-6.25-7.31-2.12-2.79-4.52-5.45-6.64-8.11-.27-.4-1.07-1.33-1.33-1.73l-1.07.14.14-1.07c-2.26-2.39-4.26-5.05-6.38-7.57-2.4-2.66-5-5.18-6.65-8.37-3.85-8.91-11.3-15.56-18.34-21.93-1.06-.94-2.13-1.86-3.19-2.79v-.94l-.8-.13-5.58-6.78a11.86,11.86,0,0,0-1.2-1.46c-2-2.52-4.12-4.92-6.24-7.31l-.4-.4c-4.12-5.18-8.64-10.1-12.76-15.41a15.41,15.41,0,0,0-1.33-1.73h-.53c-2-2.66-4.12-5-6-7.58-2.26-2.79-4.79-5.32-6.91-8.11l-.8-.26V526.4a72.37,72.37,0,0,1-9-10c-1.19-1.46-2.39-2.79-3.72-4.26a54.77,54.77,0,0,1-3.46-4.25c-1.19-1.46-2.39-3.06-3.58-4.52-.67-1.59-1.47-3.06-2.26-4.52a70.39,70.39,0,0,0-2.4-6.78c-.53-1.46-.93-3.05-1.32-4.51h-.8a37.91,37.91,0,0,0-.14-4l-1.46-.13a8.93,8.93,0,0,1,.14-1.86l-2.4-5.19c-.53-1.86-1.19-3.72-1.72-5.58a27.07,27.07,0,0,1-1.47-2.66,112.8,112.8,0,0,1-8.1-8c-2.26-1.86-4.39-3.86-6.52-5.85h-.93v-.93c-3.19-2-6.11-4.12-9.17-6.11v-1.07h-1.06c-2.79-4.25-5.58-8.64-8.64-12.63a29.07,29.07,0,0,0-1.73-2.52,90.13,90.13,0,0,0-6.78-9.3,86.33,86.33,0,0,1-4.78-8.38c-.8-1.59-1.6-3.32-2.39-4.91a3.93,3.93,0,0,0-.27-1.2,46,46,0,0,1-2-5.58c.26-12.23-4.26-24.72-12.89-33.5-6.25-5.05-14.36-7.31-20.87-12.22a99.33,99.33,0,0,0-18.61-10.64l-.66.8-.14-.27c-1.59-6.24-2.79-12.49-4.65-18.73-2.66-5.72-5.31-11.44-9.43-16.22Z" transform="translate(-139.61 -64.27)"/><path class="cls-2" d="M1114.1,331.15a31.24,31.24,0,0,1,6.64-9.83c3.32,1.46,6.65,2.92,9.84,4.38a36.91,36.91,0,0,1-6.12,8.24,59.42,59.42,0,0,1-10.36-2.79Z" transform="translate(-139.61 -64.27)"/><path class="cls-3" d="M1323.29,210.47c6.12-8.9,12.36-17.67,18.48-26.58a72,72,0,0,1,11.83,2.66c4,1.33,8.24.13,12.36-.53,3.59,2.12,7.44,4.12,10.36,7.17,3.19,6.78,2.93,14.36,4.92,21.4,1.06,4.25,4.52,7,7.31,10.37,3.86,4,4.52,10,6,15.15s-.13,10.37,0,15.55c-.13,21.66-.4,43.46-.53,65.13,0,8.9,1.06,17.81.27,26.58-.54,12.09-.93,25.25,6.38,35.48,2.39,2.79,5.71,4.66,8,7.58,1.46,6.78,3.72,14.62-.13,21a36.63,36.63,0,0,1-6.78,8.9c-4.12-2.65-8-5.58-12-8.37-3.06,1.33-6.25,3.32-9.7,3.46-4-2.66-6.25-7.05-9.71-10.24a65.84,65.84,0,0,0-8.77-5.84c-5.18,7.17-12.23,12.36-18.87,18.2-4.79,4-6,10.64-9.57,15.55-5.18,4.66-11.43,7.84-17.68,10.77a23.12,23.12,0,0,0-9.83-2.66c4.78,9.57,6.78,20.34,7.57,31.1.4,5.85-2.12,11.3-4.38,16.48s-8.38,7.05-13.29,9c-18.21,6.38-37.88,8.11-56,15.15.67,4.92,1.6,9.7,2.4,14.62,15.81-.53,31.36-3.72,47-5.45,1.07,9.57,2.66,19,4.52,28.44,1.33,5.45-.66,10.9-2.26,15.95-.79,3.72-4.52,5.59-7.84,6.65-9.57,2.52-19.8,2.39-29.24,5.32-1.33.66-3.85.92-3.45,2.92.66,6.78,1.72,13.69,2.65,20.47,21.14-5.72,42.54-11.43,64.33-13.43,4.92-.13,11.43-1.06,14.89,3.19,2.79,7.84,3.85,16.22,5.58,24.33,2.66,10.76-.4,21.79-4.12,31.89-35.35,9.71-71,18.74-106.46,27.52-5.72,1.59-12.09,2.39-17.54-.4-2.93-8.64-7-16.62-9.44-25.26-6.65-22.72-9.57-46.25-12.49-69.64-2-15.68-3.73-31.23-5.72-46.92-1.86-12.36-6.38-24.32-7-36.95.26-8.5,4-16.61,7.84-24.05,1.59-3.72,5.18-5.85,8.9-7.05,19.14-6.38,39-10.23,58.48-15.41-12-6.52-25.91-7.45-38.14-13.16l-.4-.13c-4.52-2.53-9.3-5.32-11.3-10.37-2.66-5.45-6.11-10.63-8-16.35-1.07-7,0-14.09.26-21.13.4-5.32-.26-11,2.26-16.08,2.13-5.05,5.72-9.31,9.31-13.29,4.91-5.45,7.17-12.9,13-17.68,4.65-3.85,8.38-8.77,13.82-11.56,9.44-2.93,19.54-2.13,29.38-2.13,5.45-5.72,10.23-12.1,16.08-17.28,3.72,0,7.44.13,11.16.13,4.79.14,9.44.27,14.22.54,2.93,0,6.52,1.19,9-1.07,2.79-2.39,6.25-5.18,6.65-9.17,2.12-11.83,3.45-24.32-.14-36-1.86-6.11-.79-12.62-.13-18.87.8-8.37,1.73-16.74,2.53-25.12.26-3.59.66-7.57,3-10.5ZM1354,250c-.14,16.08,1.32,32.16,2.12,48.11,1.46,9.57.8,20.07,5.72,28.71a69.47,69.47,0,0,0,1.73-12.63c.26-15,.26-30.17,0-45.19a29.09,29.09,0,0,0-4.26-16.21c-1.19-1.86-3.45-2-5.31-2.79Zm-58.88,98.22c-3.33,1.19-7.31,1.46-9.84,4.25-8.1,10.23-17.54,19.4-26.71,28.71-5.85,5.58-9.44,13-13.82,19.8.13,1.86,0,4.52,1.86,5.58,4.38,3.46,9.3,5.72,13.29,9.44a54.89,54.89,0,0,0,9.57,7c4.78-3.59,9.43-7.84,15.41-9.3,9.71-1.33,20.07-1.06,28.71-6.38,5.05-2.13,5.85-8,8.24-12.36,2.79-6.78,9-11.17,12.63-17.55,1.33-4.51,1.59-9.3,2.39-14.08-3.32-5.72-5-12.36-8.77-17.95-5.19-.39-10.37-.93-15.55-1.06-6.11-.53-11.7,2.53-17.41,3.86Z" transform="translate(-139.61 -64.27)"/><path class="cls-1" d="M1273.72,355.08c3.72-2.4,8.11-2.93,12.36-3.46l-.8.8c-8.1,10.23-17.54,19.4-26.71,28.71-5.85,5.58-9.44,13-13.82,19.8-.67-3.19-1.6-6.51-1.6-9.84a34.79,34.79,0,0,1,10.23-16.48c7-6.24,12.63-13.95,20.34-19.53Z" transform="translate(-139.61 -64.27)"/><path class="cls-1" d="M1191.58,436.81c2.66-4,6-7.31,9.17-10.76,2,5.05,6.78,7.84,11.3,10.37l.4.13-1.6,3.19-1.72,1.19-.54.27c-2,2.53-4.12,4.92-6.11,7.31-10,9.57-17.81,21.27-28.31,30.3a77.63,77.63,0,0,0-9.3,8.11c-1.07-6.78-7.71-9.57-13.16-12.23a60.24,60.24,0,0,1,19-15.28,56,56,0,0,0,20.86-22.6Z" transform="translate(-139.61 -64.27)"/><path class="cls-3" d="M861.57,449.44c11.43-3.06,23.39-6.64,35.22-3.72,14.22,3.59,25.12,14.62,33.1,26.45,13.42,19.93,21.13,43.19,26.58,66.59,4.65,18.87,5.18,39.07-.67,57.68-5.45,17.94-13.55,35.75-27.51,48.64-6.51,6.25-15,10-22.86,14.36-4.78,2.65-6.52,4.86-15.42,6.24-13.36,2.08-34.29-3.72-34.29-3.72s-3.1-1-4.05-1.32c-4.71-2.77-7.64-3.6-12-6.52a42.13,42.13,0,0,1-15-15.55c-7.71-12.76-12.23-27.11-17.28-41.07-2.26-9.17-4-18.61-3.72-28.18.4-10.89-.93-22.06,1.6-32.83,1.46-6.91,2.65-14,4-20.86,2.53-10.5,4.12-21.8,10.64-30.84,7.71-11.16,17.94-20.46,28.57-28.84a35.17,35.17,0,0,1,13.16-6.51Z" transform="translate(-139.61 -64.27)"/><path class="cls-3" d="M974.28,444.79c3.85-.8,8-1.2,11.83.13,13.95,4.12,29-.53,42.79,3.72,7.31,2.4,11.3,9.57,15.42,15.42,2.66,4.12,6.38,8.24,5.71,13.42-1.72,26.45,2,52.77,4.39,79.09,15.42-22.6,30-45.73,42.93-69.91,4.78-8.78,7-18.88,13.16-26.85,4.38-.93,8.5,1.06,12.62,2.39,9.57,3.85,19.14,8.24,28.58,12.49,5.45,2.66,12.09,5.45,13.16,12.23.53,8.24,2.39,17,0,25.12-7,13.43-15.82,25.78-23.79,38.68-5.32,7.84-9.31,16.35-14,24.59-12.89,23.39-26.45,46.25-39.61,69.37-5.84,10.64-11.56,21.67-19.8,30.71-2.13,2-4.52,4.12-7.71,3.85-14.88.4-29.77-2.53-44.52-4.39-7.05-2.12-9.17-9.57-13.16-14.88-.4,0-.8-2.26-3.19-7.44-3.85-10-4-20.87-5.45-31.37-6.11-48.78-11.56-97.56-18.47-146.2-1.2-10-2.4-20.07-.93-30.17Z" transform="translate(-139.61 -64.27)"/><path class="cls-3" d="M600.67,455.55c14.89-2.65,29.64-5.71,44.53-7.44,4.38-.4,9.17-1.06,13.15,1.06,7.58,4,13.16,10.51,19,16.49,2.13,2.39,4.78,4.51,5.32,8,3.45,17.15,6.24,34.56,9.3,51.84,3.59,21.39.26,43.85,7.71,64.59,18.34-4.79,36.95-9.7,55.95-11.43a24.87,24.87,0,0,1,13.16,1.73c7,6.37,14.49,13,18.34,21.93,2.13,12,4.39,24.05,6.25,36.15.13,2.39.66,5,0,7.44-2.26,3.06-6.38,4-9.84,4.92-8.24,1.86-16.88,2.26-25.25,3.45q-40.47,6.18-81.07,11.3c-9,.93-17.55,4.39-26.45,5.45-6.78,1.2-12.1-4-17-7.71-5.19-4.52-11.7-9.3-12.37-16.88-8.63-54.23-12.22-109.12-20.2-163.48-.79-9-.53-18.34-.53-27.38Z" transform="translate(-139.61 -64.27)"/><path class="cls-4" d="M1278.77,454c6.24-3.72,13.56-4.65,20.73-4.52a165.63,165.63,0,0,0,1.6,22.86c-25,6.38-49.71,13.43-74.43,20.74a14.16,14.16,0,0,0-.66,6.24c2.12,14,3.58,27.91,6,41.87,15.81-.67,30.7-7.84,46.65-7.58.93,6.25,2.12,12.36,2.79,18.61-8,.66-15.82,2.39-23.66,3.59-7.44,1.33-15.28,2.52-21.8,6.64,2.66,16.88,6,33.76,8.11,50.64a11.55,11.55,0,0,0,7.31.4c24.06-4.92,48.38-9.17,72.44-14.22.79,6.38,1.59,12.89,2.65,19.27-23.65,5.85-46.51,14.22-70,20.33-9.7,2.53-19.54,4.92-29.51,5.46a100,100,0,0,0-5.58-20.61c-4.65-11.16-3.72-23.52-6.78-35.08-4.65-19-6.64-38.41-9.83-57.69-2.79-18.74-6.38-37.21-7.44-56.08,23.79-6.52,47.71-12.9,71.5-19.41a50.5,50.5,0,0,1,10-1.46Z" transform="translate(-139.61 -64.27)"/><path class="cls-4" d="M867.82,455.82c11.69-3.45,25.38-2.79,35.88,4.12,13.69,8.64,22.2,23,28.84,37.48,10,23.13,17.55,47.85,18.08,73.23.66,20.47-7.44,40.67-20.87,55.83-9,9.83-22.59,15.94-36,14.75a70.62,70.62,0,0,1-26.84-10.37,98.35,98.35,0,0,1-38.28-61.54c-4.12-24.32-1.6-49.7,5.58-73.23,5.58-16.75,15.82-34.29,33.63-40.27Z" transform="translate(-139.61 -64.27)"/><path class="cls-4" d="M983.31,454.23c14.62.93,29.24,3.32,43.73,5.31,1.46,14.49,3.59,29,5.32,43.46,2,25.65,4.38,51.31,6.24,77.09.14,2.79.54,5.72.93,8.51,2.66.39,5.32.13,6.65-2.53,16-22.19,27.51-47.31,42.93-69.91,9.57-14.75,20.07-29.37,25.39-46.25a300.63,300.63,0,0,1,39.34,15.15c-14.23,24.06-28.84,48-41.34,73.1-7.44,16.21-17.94,30.57-27.51,45.59-9.31,14.22-18.61,28.57-28.44,42.4a371.63,371.63,0,0,0-51.57-5c-7.05-62.34-14.76-124.54-21.67-186.87Z" transform="translate(-139.61 -64.27)"/><path class="cls-4" d="M608.51,462.47c14.49-.27,28.71-2.93,42.93-5.45,2.66,16.88,4.79,33.89,7.31,50.9,2.79,16.75,3.72,33.76,5.19,50.77,1.72,14.89.39,30.57,6.24,44.79,7.31-.8,14.49-1.19,21.8-2,23.92-3.46,47-13.29,71.5-11.43,1.86,10.9,4.39,21.8,6.38,32.83-30.7,3.32-61.27,7.7-91.57,14-15.42,3.59-30.84,6.78-46.52,9.31-1.06-8-4-15.56-4.65-23.53-3.19-29-6.25-58.08-8.64-87.19-2.39-24.45-10.23-48.24-10-73Z" transform="translate(-139.61 -64.27)"/><path class="cls-5" d="M663.4,465.66c4,3.32,7.58,7,11.3,10.63,2,15.95,4,31.9,6.65,47.85,4.78,22.59,1.06,46.25,8.5,68.31a67.13,67.13,0,0,1-10.5,2.39c-1.59-16.34-3.85-32.56-5.71-48.91-1.6-12.62-2.53-25.38-4.92-37.88-2.52-13.95-5.72-28.17-5.32-42.39Z" transform="translate(-139.61 -64.27)"/><path class="cls-3" d="M874.46,482.27c5.19-2.39,11.57-1.73,16.88.4,6.25,4,10.37,10.37,14.49,16.48a148,148,0,0,1,16.61,39.61c3.46,13.82,3.19,29.23-4.12,41.73-6.38,12.76-24.59,16.48-35.88,8.24-10-7.44-14-20.07-16.62-31.76a177.43,177.43,0,0,1-2.52-52.37c1.33-8.11,3.19-18.08,11.16-22.33Z" transform="translate(-139.61 -64.27)"/><path class="cls-5" d="M1185.73,511.91c-1.46-8.51-3.58-18.21,1.6-26.05,5.05,40.4,13.29,80.41,20.07,120.68,2,14,8.11,27.11,9.83,41.2.93,4.65-2.12,8.51-4.12,12.36-4.52-21-10.1-41.6-13.55-62.73-5.19-28.44-8.11-57.15-13.83-85.46Z" transform="translate(-139.61 -64.27)"/><path class="cls-5" d="M815.72,519c2.12-7.44,2.79-16,8.77-21.53-2.66,11-6.78,21.93-7,33.36-.13,9.7-.39,19.41.27,29.11a122.92,122.92,0,0,0,22.73,58.88c5.31,7.44,12.49,13.42,19.27,19.53-6.78,1.47-14.22,5.19-20.73,1.86-5.59-5-8-12.49-11.83-18.74-6.12-10.1-7.84-21.79-10.9-33a147,147,0,0,1-5.45-36.41c-.13-11.17,2-22.33,4.92-33.1Z" transform="translate(-139.61 -64.27)"/><path class="cls-2" d="M871.8,511.91c2.66-1.6,5.45-3.59,8.78-2.93,5.71.93,9.83,5.85,12.62,10.64,4.12,7.31,6.91,15.28,9.31,23.26a41.25,41.25,0,0,1-7.85,38c-1.72,2.39-5.84,3.85-8.1,1.19-5-5.45-6.91-12.89-9.31-19.8-2.52-9.44-5.85-18.87-5.58-28.71,0-7.31,0-14.48.13-21.66Z" transform="translate(-139.61 -64.27)"/><path class="cls-5" d="M900.38,582c4.92-5.45,9.7-11.83,16.75-14.49a27.14,27.14,0,0,1-6,12.63c-2.26,3.72-7.17,1.73-10.76,1.86Z" transform="translate(-139.61 -64.27)"/><path class="cls-5" d="M772.65,597.77c2.26,2,5.32,3.72,6.12,6.91,2.12,8,4,16.21,4.52,24.45-3.06-3-6.78-5.85-8.24-10.1a57.5,57.5,0,0,1-2.4-21.26Z" transform="translate(-139.61 -64.27)"/><path class="cls-5" d="M1007.1,649.87c15.82-1.2,31.37,2,46.79,4.12a74.67,74.67,0,0,1,3.45,16.21c-8.37-.53-16.88-1.59-25.25-1.33-5.45-.13-12,.67-16.21-3.45-4-4.52-6.12-10.24-8.78-15.55Z" transform="translate(-139.61 -64.27)"/><path class="cls-6" d="M168.05,679.77a26.8,26.8,0,0,0,6.25-2.92c4.39,4,7.44,9.3,9.84,14.75,6.77,6.91,14.22,14.22,17.41,23.79,1.06,2.53,2.26,4.78,3.45,7.31a69.28,69.28,0,0,0,6.91,5.45c2-.27,3.59-1.73,5.45-2.66.93,0,2.79.13,3.86.13,2.26,2.66,4.65,5,6.91,7.71.53.14,1.73.27,2.39.4a42.5,42.5,0,0,0,3.86,3.06c3.45,2.26,6.91,4.78,8,8.9,3.46,4.12,9,5.32,13,8.64a49.14,49.14,0,0,0,9.7,6.12c2.39,2,4.65,4.12,6.78,6.24.93,0,2.65-.13,3.45-.13a14.13,14.13,0,0,1,1.33,2.39c2.92,2.26,5.72,4.66,8.64,7a26.51,26.51,0,0,0,3.06.26c4.78,4.12,10.23,7.18,15.15,11,7.57,6.64,15.55,12.49,22.86,19.27.66.13,2.26.13,3,.26.8,1.07,1.6,2.26,2.53,3.46,4.65,1.59,8.24,5.18,13,6.64,7.58,2.26,14.23,6.78,21.27,10.5,1.33.14,2.79.27,4.25.4a18,18,0,0,0,1.33,2.79,33,33,0,0,0,3.72.14c1.33,1.46,2.66,2.92,4,4.51,3.06.8,6.25,1.73,9.57,2.4,1.73,1.19,3.59,2.65,5.32,3.85.4.67,1.19,1.86,1.59,2.39.93,0,2.66.14,3.59.14.8,1.33,1.73,2.79,2.66,4.12,1.33-.14,2.79-.4,4.25-.53,3.06-3.46,8-.8,11.3-3.46a45.75,45.75,0,0,0,4.12-2.79c6.64-1.33,12-5.72,18.21-7.84,5.18-1.86,10.9-6,16.48-3.06,5.45-4.52,14.09-3.46,19.93-.13a31.87,31.87,0,0,1,3.59.13,47,47,0,0,1,2.93,4.25c3.45.27,6.38-1.59,9.43-3,2,.39,3.46,1.72,5.19,2.65,2.39,0,4.78.14,7.17.14.8.79,1.73,1.72,2.66,2.52,6.12.27,12.1,1.07,18.21.4,7.71-.93,15.55.13,23.39-.53,4.65-2.66,9.57-5.72,15.15-5.45,6.25,0,12.5-.27,18.61,1.33,8.77,1.73,17.81-.27,26.58,1.33,5.72.8,11.57.26,17.41.53,7.71,0,15.55.8,23.13-1.33,1.6-.66,3.19.27,4.65.93,8.37-.26,16.88.53,25.25.4,4.52,0,8.78,1.46,13.16,2.53,5.19.26,10.37.13,15.55,1.06a19.33,19.33,0,0,1,3.86-1.33c.79,1.46,1.59,2.79,2.26,4.25,8.77.4,17.54-.13,26.31.13,4.92-.13,10.24.67,14.89-1.32l5.18.79c6.51-3.45,14-3.45,21.13-3.32,5.85.4,11.17-4,17-2,6.64,1.86,13.55,1.86,20.33,2.39,6.91,1.59,12.89-4.52,19.8-2.79a56.86,56.86,0,0,0,20.07-.13c4.39.66,8.51,2.92,13.16,2.26,4-.67,7.31,1.86,10.37,3.85l6.25-6.65c11.82.67,23.65-2.92,35.35-.39,7.18.66,14.62-.4,21.53,2.12,4.25,1.86,8.64-.26,12.89-.4,5.72.67,7.58-7.57,13.29-6.38,10.37,2.53,21,.67,31.64.93a8.42,8.42,0,0,1,6.91-.4c5.31,1.47,10.63.54,15.94.67,3.59.4,7.32,2.13,10.77.27,4.92,4.12,10.5,7.7,17.28,6.64l2.39,3.59c15.55.26,31.24-.8,46.52,1.33,4-.53,7.57,1.19,11.16,2.26,3.46.26,6.78-.67,10.24-.67.79-.93,1.59-1.86,2.52-2.79,1.07.13,3.19.13,4.26.13l3.32,2.53c4.52-1.33,9.3-1.46,14-1.59.54.39,1.6,1.32,2.26,1.72,4.39-1.46,9.31-4,13.69-1.46,11,.67,22.07-1.33,33,.4,7.05,1.33,14.36,1.06,21.4,1.2,3.19.13,5.32-2.8,8-3.86,15.55,1.73,31.1.27,46.78.93,5.18,5.45,13,3.86,19.67,3.19,9.7-.93,19.4,1.07,29.11.8,8.77.13,17.54.4,26.31-1.2,12-2,24.19-1.06,36.29-1.86,11.83-2,23.92-.66,35.88-.8,4.66-.53,8.78,3.59,13.43,1.6,3.85-.4,8-.53,12-.93a75.38,75.38,0,0,1,7.71.93c2.92.93,6.11.8,9.17.8,1.86.53,3.72,1.06,5.58,1.73a63,63,0,0,1,4.39-5.72c2.52,0,5,.93,7.57,1.33,2.66-.13,5.32-.93,8.11-.93,4,.93,7.71,2.92,11.83,3.59,3.59.13,7-.93,10.63-1.2,4.12-.53,7.84,4,12,2,8.51-3.45,18-5.84,27-3.05,2.93-3.19,5.72-7.18,10.37-7.44,1.2-1.2,2.26-2.53,3.46-3.73a18.83,18.83,0,0,0,2.92.27,44.08,44.08,0,0,1,5.45-4.65,62.13,62.13,0,0,0,8.11-4.79,33.15,33.15,0,0,1,3.58-.26c3.59-3.72,9.57-3.46,12.76-7.71,3.33-3.46,4.66-10.24,10.77-9.57.93-1.06,2-2.13,3.06-3.19,10.36-4.12,15.68-14.75,25.52-19.8,1.32-.4,2.79-.67,4.11-.93l.94-1.86a14.27,14.27,0,0,0,7-3.86c3.19-1.33,6.25-2.66,9.57-3.72.66-.93,1.46-1.86,2.13-2.79,4-3.32,7.84-6.65,12.09-9.57a24.41,24.41,0,0,0,6.11-4.39c.67-.13,2.26-.26,2.93-.4a68.28,68.28,0,0,0,10.9-9.57,24,24,0,0,0,6.51-3l6.78-2.79c2.26,1.32,4.38,2.79,6.64,4.25,6.38-3.06,10.24-9.3,16.08-13a15,15,0,0,0,1.87-2.25c2.79-.54,5.44-.94,8.24-1.33,5-6.91,13.29-10,19.27-15.69h2.79c1.06,1.07,2.13,2,3.19,3.06.66,5.72-4.79,8.77-6,14-4.26,4.91-9.44,9-13.69,14.08-3.72,4.39-8.77,7.45-12.89,11.43-1.73,0-3.33.14-5,.14-.93,1.33-1.87,2.52-2.8,3.85a38.35,38.35,0,0,0-4.12.27c-1.33,2.26-3.72,2.92-6.11,2.92a91.9,91.9,0,0,0-8.24,5.85c-.67.13-2,.4-2.79.53a22.44,22.44,0,0,1-7.18,4.39,23.1,23.1,0,0,1-.8,2.92c-8.64,2.39-17.14,5.32-24.72,10.23-1.72.93-3.32,1.86-4.91,2.66a24.88,24.88,0,0,1-9.57,6.65c-.8,1.19-1.6,2.52-2.26,3.72l-4.52-.4c-.93,1.19-1.86,2.53-2.79,3.72-7.31-.26-10.77,8.11-17.41,10.1-4.26,3.72-9,6.65-13.43,10-3.85,2.92-8.77,3.46-12.49,6.38-3.32,2.39-6.78,4.79-10.37,6.91-4.65-1.33-6.64,3.19-9.7,5.72-2.26.13-4.65-.27-6.78.26-3.32,2.53-6.64,5.32-10.76,6.65-2,3.72-5.85,4-9.71,3.85-.66,1.2-1.32,2.39-1.86,3.59h-5.58c-.8,1.46-1.46,2.79-2.26,4.25-3.45-.26-7-.93-10.5-1.46-4,4.66-10.77,3.59-16.21,4.12-6.25.8-12.23-2.13-18.48-1.59a137.42,137.42,0,0,0-14.88.93c-6.12-1.33-12.23-2.66-18.48-2.13-4.92.8-8.64-2.92-13-4.38-1.2.66-2.26,1.32-3.33,2-.53-.4-1.72-1.2-2.26-1.6-8.9-.66-17.94,1.6-26.71,0-9.44-1.19-19,.54-28.44-.13a23.89,23.89,0,0,1-2.79-2.13c-15.55-3.18-31.37-1.33-47.05-2-21.8-.13-43.46,1.2-65.13.13-9.83-.53-19.54.8-29.37,1.47a134.23,134.23,0,0,1-42.53.13c-3.19-.27-6.12,1.73-9.3,1.59-3.06-.79-5.85-3-9.18-2.66-7,.27-14.22-.39-21.26.54-6.25.93-12.36-1.33-18.61-.4a80.23,80.23,0,0,1-22.59-.14c-5.85,0-12.36-1.19-17.55,2.26-8.24-3.58-16.61,1.87-25,0-9.17-2.52-18.74-.39-28-1.72-2.79-.4-5.45-1.33-7-3.72l-2.66,2.65c-2.92.4-5.85,1.07-8.9.93-10.77-1.19-21.53-1.06-32.43-.66-1.07-1.2-2.13-2.39-3.19-3.46-.93.8-1.86,1.6-2.66,2.4A47.59,47.59,0,0,0,987,846.71c-3.33.93-7.18,2.39-10.5.79-3.86-2.12-8.38-2.26-12.63-2.39-1.2,1.73-2.53,3.46-3.86,5.18-5.71-.66-11.29.8-17,1.73-2.66.67-4.52-1.46-6.51-2.79-13.42,2.66-26.85-.53-40.4-.27a27.63,27.63,0,0,0-3.46-1.46c-2.79,1.86-4.25,6-8.11,6-5.84,1.33-11.69-.53-17.54-.79-6.51-1.2-13.16,1.32-19.8,0-5.59-1.33-11.43-1.07-17.15-.67-1.86.27-2.92-1.73-4.25-2.53-6.25-.66-12.36-.26-18.21,2.13A235.11,235.11,0,0,0,782,853c-1.07-.8-2.26-1.59-3.33-2.39a50.44,50.44,0,0,0-17.8,2c-17.55.53-35.49,4.39-52.9.27a85.8,85.8,0,0,0-20.07,2.52c-12,.67-24.19.4-36.28.27-1.47-1.33-2.93-2.53-4.52-3.86-10.24,1.87-20.87.54-31,3.46-5.58-3.72-12.49-1.86-18.74-2.79a64.43,64.43,0,0,0-15.82-3.32c-3.19.39-5.85,2.79-9.17,2.79-6.51.26-12.89,2.26-19.4.8a46.22,46.22,0,0,0-12.1-.94c-1.06-.93-2.12-1.72-3.19-2.52a49.51,49.51,0,0,0-10.9.93c-2.26-1.46-4.38-2.93-6.51-4.25-.8,1.32-1.59,2.79-2.39,4.25-9.3.4-18.48,2.66-27.91,3.19-8.91,3.85-18.61,4.25-28,5.72-8.1.53-15.94,2.65-24.05,3.58-1.86,0-3.19,1.33-4.65,2.4-5.45.53-10.9,1.19-16.35.93-1.6-1.07-3.06-2.13-4.65-3.19-.4.79-1.33,2.52-1.86,3.45-6.25-1.73-12.76-1.33-19-2.66-2.79-1.46-5.32-3.32-8.24-4.38-5.05-3.33-9.84-7.18-13.29-12.23-6.78-.13-11-5.85-16.88-8.11-4.12-2.79-8.37-6.11-13.69-6.24a59.24,59.24,0,0,0-14.89-9.84c-6.77-2.92-11.16-10.37-19-11.16A11,11,0,0,0,299,809a43.84,43.84,0,0,0-9.57-6.91,60,60,0,0,1-21.13-15.15c-1.73-1.47-4.12-1.2-6.12-1.73-9.3-8.24-17.41-17.81-26.84-25.79,0-.79-.14-2.26-.14-2.92-5.58-6.78-12.49-12.49-18.47-19-2.66-3.45-7.71-2.26-10.63-5.31-6.92-6.38-13.83-12.9-21.54-18.21-5.84-3.85-10.23-9.44-15.15-14.22-2.12-2-1.33-5.19-1.86-7.71-2-1.86-4.38-3.46-5.84-5.85.79-3.06,4.25-4.39,6.37-6.38Z" transform="translate(-139.61 -64.27)"/><path class="cls-7" d="M191.58,679c4-.26,7.31,2.4,10.76,4.12,6.25,3.59,13.83,4.66,19.41,9.31,4,3.19,9,4.25,13.42,6.78,5.72,3.19,11.43,6.24,17.15,9.3,4.78,2.52,6.64,8.5,11.83,10.37,3.19.26,6.24-2,9.43-1.2,16.08,4.79,30,14.22,45.32,20.87,8.38,4.25,17.28,7.17,25.79,10.89,7.18,3.06,13.69,7.32,20.87,10.5,5.58,1.2,12.09-2,16.74,2.53,8-2.53,15.82,1.86,23.93.27a40.78,40.78,0,0,0,3.72,3c.93-.79,2-1.59,2.92-2.39,1.86,2.39,3.59,5,5.85,7,2.92.8,6,0,8.9-.26,9.18-1.73,18.48.4,27.78-.8,4-.4,7.58-2.52,11.7-2.79,6.78-.8,13.42,1.2,20.07,1.46a83.91,83.91,0,0,1,16.21,2.39c2.66-2.52,4.79-5.58,4.92-9.43,2.13.53,4.39,1.06,6.51,1.59,1.73-.4,3.46-.66,5.32-.93,2,1.86,3.85,4.52,6.91,4,9.44-.8,19.8-.4,26.85,6.65,1.19-1.07,2.39-2.13,3.59-3.06,12.49.66,24.85,2.52,37.21,2.79,12.63-2,25,3.32,37.48.66,3.32-1.46,5.32-5.18,9.17-5.44,4.92-1.07,9.7,1.33,14.62,1.85,8,.67,15.95-1.32,23.92-.52,11.83,1.19,23.8.26,35.62,1.72,14.62-1.86,29.38.4,43.86-1.2,7.45-2.52,15.29-.26,22.86-1.06,7.58-.53,15,1.73,22.6,1.6,4.92,0,9.7.53,14.62.93,7.44.66,14.88-.8,22.33.4,8.9,1.72,17.81-.93,26.84,0,8.38.79,16.88,1.33,25.26,2.39,4.78.13,7.31,4.65,9.7,8.11A87.1,87.1,0,0,0,923,802.18c3.19,2.26,5.45,6.38,9.44,7,5.05-2,9.17-5.71,14-8.24,8.24-5.18,17.14-8.9,24.85-14.88,4.52-3.32,4.39-9.57,7-14.09,2.79-3.32,7.58-1.33,11.3-1.46,15.55.26,31.1-1.6,46.65,0a293.4,293.4,0,0,1,58.22,1.06c5.45,1.33,9.56-3.72,14.75-3.72,13.69-.66,27.51.8,41.2.26,7.58-.53,15,2.13,22.46.54a44.72,44.72,0,0,1,12.63-.67c1.73,1.33,3.58,2.93,6,2.66a25.67,25.67,0,0,1,13.56,3.59c9-3.19,18.47.53,27.77-.8,10.64-.53,21.27,0,31.77-.13,3.19,5.45,9.7,2.66,14.75,3.32,7,.8,14.22,1.33,21.4.13,11.43-1.72,23,.54,34.42-.39,5.32-.27,11.57-1.33,15.55,3.19a79.81,79.81,0,0,0,17.68,2c16-.27,31.9-.27,47.85-.13,4.38-.4,7.84,2.52,10.9,5.31,6.51-2.26,13.55-2.26,20.46-3,8.51-1.33,17.28-.4,25.79-2,4.78-1.33,8.64,2.26,12.23,4.79,2.92-2.4,6.37-3.46,10-4.26,5.72-1.33,10-5.45,15.15-7.7,2.93.26,5.32,2.39,7.85,3.85,8.37-1.33,15.81-5.85,24.19-7.18,3.58-.66,7.7-.8,10.23-3.85,9.17-4.65,16.61-12.5,26.72-15,6.51-1.2,11.69-5.45,17.94-7.18.4-.53,1.19-1.46,1.59-2,5.32-1.06,11-4.92,16.35-1.33,6.25-2.39,12.89-4.25,18.87-7.44,4.39-1.73,9-2.66,13.16-5,6.25-3.46,13.56-4.92,19.67-8.64,2.39-1.73,5.45-1.6,8.24-1.6l2-2.79c1.33-.26,2.8-.53,4.13-.8,2.26-3.32,6-4.25,9.83-3.72,4.39-1.86,8.37-4.78,13-5.71,8.64-.67,16.49-6,25.26-4.26,1.06,1.33,2,2.66,2.92,4-2.39,2-4.52,4.65-7.57,5.72-9.71,2.39-17,9.7-25.66,14.48-4.65,2.4-8.63,6.52-14.22,6.38-5.58,7.45-14.75,10.77-21.93,16.35A142.86,142.86,0,0,1,1632,766.69c-5.58,4.26-13.69,4-18.21,9.71-2.39,2.25-2.79,5.58-3.32,8.63a59.77,59.77,0,0,0-8.64,5.59c-5.18-1.2-9.84,1.33-13.29,5,0,6.64-6.25,9.83-11,13.42l-2.93.4c-1.06,1.06-2,2.13-2.92,3.19-6.78,1.33-14.22,1.06-20.33,4.92-6,4.25-13.83.53-20.34,3.45-4.12,2.13-8.9,1.73-13.42,1.46-1.47,1.07-2.8,2.4-4.52,3.06-3.59-.53-7-2.12-10.63-1.19-7,1.59-14.09,0-21.14.79-7.57.54-15,2.79-22.59,2.13s-15,1.86-22.6,1.73c-4.38-.4-8.64-1.86-12.75-2.93-.8,1.07-1.6,2.26-2.4,3.33-17.14-1.07-34.69,1.46-51.43-3.2-3.06-1.06-6.25-.13-9.44.4-.8,1.2-1.6,2.27-2.39,3.46-9.44.13-19,1.86-28.45.67-7.31-1.07-14.75.79-22.06-.94a46.87,46.87,0,0,0-14.88-.66c-8.38.8-16.75-1.59-25-.66-12,1.32-23.92.53-35.75,1.32-7.58-.66-15.15-.26-22.73.14-12-2.39-23.92.53-35.89.26-7.17-.26-14.08,2.4-21.13,1.07-6.64-.93-13.42-2.13-19.93-.14-3.86,1.2-8,1.07-12,.8-6.64-.53-13.42,1.06-19.93-.8-5.32-1.33-10.9,0-16.22-1.33a41.68,41.68,0,0,0-10.63-.66c-4.12.13-7.84-2-11.83-2.26-5.32-.4-10.63.27-15.82-1.33-3.45-.8-5.84-3.72-8.37-6-25.12.13-50.37-.27-75.62,0-16.48.93-33.1-.8-49.58.8-5.31.53-10.5.8-15.68.93-1.33-.67-2.53-1.33-3.72-2-1.86,1.07-3.59,2.13-5.32,3.19a60.54,60.54,0,0,0-6.78-2.26c-3.32.4-5.85,3.33-9,3.73-2.92-.53-5.58-2-8.24-3.06-1.19,1.46-2.25,2.92-3.32,4.39-11.29.79-22.59-2.26-33.76-.54-5.45.67-10.5-3.19-16-2a54.59,54.59,0,0,1-23.65-1.46c-8.64,2.92-18,2.92-26.85,1.46-15.15-2.53-30.17,1.6-45.19,3.19-9.44.13-19.14,1.06-28.57-.4a85.45,85.45,0,0,0-10.11-.4c-5.84,0-11.29-2.39-17.14-2.26-5.32,0-10.5.93-15.82.27-10.23-1.33-20.6.4-30.7-1.2-5.32-.93-10.63-.13-15.81.53-4.26.8-8.11-1.59-12.1-2.26a212.29,212.29,0,0,0-40,.54A43.76,43.76,0,0,0,527,822.12c-8.64-3.06-17.81-2.4-26.72-1.07-4.65-1.19-9.3-2.79-14.22-2.65-3.58-2.53-5.45-7.18-9.57-9-3-.67-5.58,1.59-8.37,2.79-2.52,1.59-5.71,1.19-8.64,1.06-1.06.67-2.12,1.46-3.19,2.13-3.45-1.33-7.71-3.86-10.23.26l-5.58.8c-1.33,1.2-2.53,2.39-3.86,3.59-4.38.13-8.9-.13-13.16,1.06-2.92,1.07-5.31,3.06-8.1,4.39-3.86-.93-6.78-3.86-10.5-4.92-3.19-.8-6.52-1.2-9.71-1.73-4.78,1.33-9.43,3.06-14.48,3.19-5.45-1.46-8.38-6.77-12.36-10.23-4-4.12-10.5-4.12-14.09-8.77-10.9-2.4-18.74-11.17-28.44-16.08-7.45-3.86-14-9.17-20.07-14.76a38.29,38.29,0,0,0-3.86-.13c-8.77-9.44-21.4-13.56-30.7-22.33-6.25-4.38-11.3-10.23-17.94-14.09-5.72-3.45-10.5-8.37-15.68-12.49s-7.85-10.5-12.9-14.62c-3.19-.66-6.64-.4-9.83-1.06-2.39-1.6-4.12-4-5.85-6.12-5.45-6.64-12-12.49-17.15-19.27,0-.8-.26-2.26-.26-3.06Z" transform="translate(-139.61 -64.27)"/><path class="cls-5" d="M1331.8,863.58a22.91,22.91,0,0,1,2.66-4.25c10.63,2.79,22.33-.4,32.83,3.72,4.38.53,8.64,1.6,13,2.13,3.59.26,7-1.73,10.63-1.33,4.52.4,8.78,1.73,13.3,2.39,7.57.4,15.28-.8,22.72.8,6.25,1.2,12.63-.4,18.74,1.33,4.92,1.33,10,.4,15,.26,3.19,3.59,6.51,6.78,9.7,10.24-1.33,2-2.79,4-4.25,5.85a83.24,83.24,0,0,0,1.46,9.7c-4.38,2.79-9.43,1.19-13.82-.4-2.13,1.86-4.52,3.72-6.78,5.58-2.39-1.06-4.65-2.12-6.91-3.05-.93-1.47-1.73-2.8-2.53-4.13-4.12.93-8.1,2.53-12.22,3.33a73,73,0,0,0-12.1.13l-3.19-2.79c-6.38.93-12.76,1.06-19.14,1.73-3.59,1.73-8.1,1.19-11,4.38l-7.84.4c-.53-.66-1.73-2-2.26-2.79-6.78.13-13.69.53-20.47.13l-2.39-4.78c-1.46,1.33-2.92,2.52-4.39,3.85l-3.18-5.58c-.54-.4-1.87-1.2-2.53-1.59v-6c-4.39-5.59-2.92-12.9-5-19.28Z" transform="translate(-139.61 -64.27)"/><path class="cls-5" d="M530,867.31c1.6-.54,3.06-1.6,4.92-1.6,14.75-.66,29.51-1.2,44.26-.4l.66,2c-4.12,4.78-11.69,4.91-14.88,10.76-1.73,3.46-3.32,7.18-6.65,9.57-3.85-.13-7.84-.13-11.56-1.06a32.87,32.87,0,0,0-3.72,2.26l-5.58.39c-1.07-.79-2.26-1.59-3.46-2.39-2.79-.13-4.92-1.73-7-3.05-5.72-.93-11.57-.14-17.15,1.32a27.91,27.91,0,0,1-3.19-2.39c-6.38-3.72-13.69-3.45-20.73-2.92-1.33,1.59-2.79,3.19-4.12,4.78-.4,1.33-.67,2.66-.93,4C477.07,890.3,473,890.43,469,890c-.8.93-1.6,2-2.39,3.06-2.53-3.32-6.92-3.46-10.24-5.45-1.06.93-2.12,1.86-3.19,2.66-.8,0-2.52-.14-3.32-.14-.66.67-1.86,2.13-2.53,2.93-4.38-1.46-7.84-5.18-11.29-8.24-2.39-1.86-1.6-5.19-1.46-7.84,8.63.26,17-1.33,25.51-1.2a64.18,64.18,0,0,1,6.52-6.91c6.77,3.46,14.62.93,21.93,1.06a307.05,307.05,0,0,1,33.22-2.65c2.66-.8,5.59-1.47,8.24,0Z" transform="translate(-139.61 -64.27)"/><path class="cls-1" d="M970.29,892.29c.8-4.12,4.52-9.43,9.3-7.18,3.72,1.6,8-2.39,11.17.8,5.71,3.72,5.31,11.17,4.25,17-2.39,10.5,0,21.27-.66,32a80.58,80.58,0,0,0,5.71,8.25c.8.39,2.26,1.06,3.06,1.46.8-4.12-.14-9.71,4.12-12.23,3.85-3.32,10-6.25,9.57-12.23,0-5.05,3.85-9,7.44-12.09,6.38-1.33,13.16-.53,19.67-.53a92.16,92.16,0,0,1,6.78,7.57c8.1,1.33,14,7.71,18.61,13.82,6.77.67,9.83-6.51,14.75-9.83,3.85-2.39,5.85-6.78,9.57-9.57,4.38-3.19,6-8.64,9.7-12.63,6.51.54,13.29-1.19,19.4,1.6a120.63,120.63,0,0,0,14.63,16.21c2.92,7.18,5.58,14.89,11.82,19.81,6,3.85,13.29,1.86,19.94,2.39,7.18.66,10.5-8.11,17.14-9.17,5.85-.93,11.7-.27,17.55.13,1.73,2.53,4.25,4.92,4.78,8.11-2.65,4.65-8.1,5.58-12.89,6.38-5,.66-7.17,5.71-11.43,7.71-5.18,2.39-10.9,3.45-16.48,5-4.91.66-10,0-14.75,1.19-7.31.53-14.62.4-21.27-2.65-3.85-4.39-6-10.11-10.76-13.69-1.46-4.26-2.26-9.31-5.85-12.5-3.06-2.79-4.65-6.64-7-10.1-5,4-8.38,9.7-13.43,13.69-3.32,2.39-4,7.18-7.71,9-5.18,3.06-9,7.71-13.69,11.56-1.72-1.06-3.45-2-5.18-3.05-1.33,1.06-2.66,2-4,3.05a14.34,14.34,0,0,1-7.17-5.58c-2.8-4.52-8.38-6-11.44-10.1-2.79-3.59-7-5.72-10.76-8-1.59,6.24-6.11,11.16-7.31,17.54-1.06,5.31-4.39,9.83-8.51,13.29s-7.44,9.17-13.42,8.9c-6.11-.93-12.89,1.6-18.47-2.26-5.45-2.12-5.85-8.64-7.58-13.42-.8-2.79-3.85-3.72-6.11-5.05-4.92-2.13-8.78-5.85-9.84-11,1.86-4.52,4.65-8.51,6.38-13,.53-4,2.53-7.84,1.6-12a59.3,59.3,0,0,1-1.2-18.74Z" transform="translate(-139.61 -64.27)"/><path class="cls-1" d="M801.36,892.56a33,33,0,0,1,14.36,2c4.65,2.66,7.84,7.44,10.63,12,2.13,3.86.13,8-1.2,11.83-4.78,1.86-10,2.92-14.88,4.79-1.6.66-3.19,1.33-4.79,2.12-4.78,9.7-3.59,20.74-3.59,31.23,5.59-.13,12,1.2,16.75-2.78,3.72-3.06,7.58-6.25,12.49-7.18,5.45-.67,8.51-5.45,12.1-8.91A27,27,0,0,1,861,945.06c2,5.05-1.6,10.63-5.58,13.82-5.19,4-9.84,8.9-16.09,11-2.12.8-4.25,1.46-6.38,2.26-4.12,2-8.37,3.85-13,4.12-9.3.67-18.21-2.92-27.38-4-3.72-1.59-7.58-2.65-10.9-4.91-2.79-3.59-4.12-8.11-4.92-12.63-.93-8-.66-16-.26-23.93,1.46-3.85,1.33-8.5,4.65-11.56,3.46-3.72,7.84-6.38,11.7-9.7,3.32-5.32,4.38-12,8.5-17Z" transform="translate(-139.61 -64.27)"/><path class="cls-1" d="M884.16,895.88c3.86-3.06,9-2,13.56-3.06,9.84-.26,19.94-1.06,29.37,2.13,2.93.27,4.66,2.66,6.38,4.65,12.36,1.06,23.26,11,25.26,23.26.4,4.12,4.52,6.65,4.91,10.77-.79,4.91-5.71,7.44-7.17,12a25.43,25.43,0,0,1-10,12.09c-14.09,4-28.84,2.79-43.33,2.93-5.71,0-11.83.4-17.28-1.73-3.72-4-8.64-6.51-12.49-10.23-3.06-6-9.44-9.57-11-16.35-1.46-3.46.26-7.31.79-10.77,1.73-3,5.06-4.92,6.25-8.11,1.6-3.32,2.53-7.17,5.85-9.3s5.45-6,8.9-8.24Zm12.37,11.43c-1.6,3.86-2.13,8.37-5.19,11.56a20.89,20.89,0,0,0-5.05,8c2,2.66,4,5.45,6.25,8,2.66,3.33,7.84,3.33,10.36,6.91,1.73,1.47,2.66,4.79,5.45,4.52,7.31,0,14.62.27,21.93-.13,3.86-2.79,5.85-7.31,8.11-11.3-2-5.71-4.25-11.69-8-16.48-5-2.66-9.84-5.85-12.63-10.9-7-.26-14.09-.13-21.26-.13Z" transform="translate(-139.61 -64.27)"/><path class="cls-4" d="M1402.91,911.17c4.25.79,7.31-4,11.69-2.53,1.2,1.2,2.39,2.39,3.59,3.46.66,1.19,1.33,2.52,2,3.85,1.6-3.19,3.59-6.91,7.85-5.32,1.72.54,3.45,1.07,5.18,1.73,2.26,1.6,4.38,3.19,6.51,4.92-.53.8-1.46,2.39-1.86,3.19a29.46,29.46,0,0,0-6,3.59,83.28,83.28,0,0,0,8.77,5.18l-.13,1.06,1.46-.13.53.53a17.73,17.73,0,0,1,4.52,4.39c1.06.13,2.39.26,3.59.53a27.9,27.9,0,0,0,3.59,3.32c0,2.13-.27,4.26-.4,6.52l4,2.39c.93,2.65,2,5.18,4.12,7.17a38.29,38.29,0,0,0,.26,3.86c-.93,1.59-1.86,3.32-2.79,4.92a70.65,70.65,0,0,1,1.2,10.5c-4.39,2.66-8.77,6.38-9.44,11.69h-.66c-2.26,1.33-4.65,2.66-6.91,4.12-1.6,1.6-3.19,3.32-4.79,5.19a28.55,28.55,0,0,0-3.32.26l-.13-1.06c-.4-.8-1.33-2.39-1.87-3.19h-3.58a66.22,66.22,0,0,1-6.65,5.32c-2.52,0-5,.13-7.58.13-.53-.8-1.46-2.13-2-2.93-2.12,1.47-4.65,1.47-7.18,1.73-.66-1.59-1.46-3-2.12-4.52a21.73,21.73,0,0,0-2.79.67c-.27.66-.67,2.26-.93,2.92-.67.53-2,1.46-2.66,2h-3.72c-.8-.94-1.73-1.73-2.53-2.53-.13-.8-.26-2.39-.4-3.19-2.79-2.79-5.45-5.72-8.5-8.24-.4-.53-1.2-1.6-1.6-2.26v-3.19c-1.46-1.06-3.85-1.59-3.32-3.85,0-3.33,2.52-6,3.45-9a31.71,31.71,0,0,1-5.18-4.26c-1.19-1.06-2.52-2.12-3.72-3.32l-.8-.13.27-.8a24.88,24.88,0,0,0-2.13-1.73l-.8.14c.14-1.46.14-4.12.14-5.58l1.32.26-.13-1.59a11.67,11.67,0,0,1,2.13.13c1.2-3.19,3.19-6.25,3.19-9.84-2.13-2.52-1.2-5.18,1.46-6.78a15.41,15.41,0,0,1,.27-2.52c1.06-1.33,2.26-2.66,3.32-4a22,22,0,0,0,.27-2.92c2.52-2.79,3.85-7,8-7.84v-.4c4.65-.4,9.17-2.39,14-2Z" transform="translate(-139.61 -64.27)"/><path class="cls-4" d="M480.52,915.55c5.45-.27,11.17-2,16.48,0,4.12,1.73,8.64.8,12.9,0a55.19,55.19,0,0,0,5.05,2.26c2.39,1.06,4.78,2.52,7.17,3.72l.27.4,1.73,1.2,2.79,4.78c2.39,2,3.59,5.05,5.84,7.18.14.66.4,1.86.54,2.39,1.19,1.06,2.26,2.26,3.45,3.46.13,4.65,4.12,9.56.13,13.69,3.19,2.52,1.73,6.64-1.46,8.37a79.06,79.06,0,0,0-6.64,5c.66.93,1.19,1.86,1.86,2.79-1.6,1.73-3.19,3.59-4.79,5.18a8.21,8.21,0,0,0-2.65,5.45c-1.73,1.6-3.33,3.06-5.06,4.39-4.78,2-10,1.33-14.88,1.33-2.26-1.86-4.65-.93-7.05,0a84.51,84.51,0,0,1-5.31-6.78c-2.26,0-5.05-.27-4.92,2.92l-1.06-.13.4,1.73c-1.2,0-3.59-.13-4.79-.13-2.52-1.47-5.18-2.53-7.84-3.86-1.33-.66-2.79-1.33-4.12-2l-1.59-1.2c2.12-3.45-1.6-5.58-3.46-8h-5.85a31.14,31.14,0,0,1-3.06-1.33l.14-1.2-1.33.27c-.13-3.86-.4-7.71-.27-11.56a43.6,43.6,0,0,0,4.92-3.73c1.06-1.19,2.13-2.52,3.06-3.72,0-1.06,0-3.19-.14-4.25a21.18,21.18,0,0,1-4.38-5.32c-1.6,1.86-3.19,3.86-5.85,3.59-.13-3.85-1.06-8,1.46-11.3,1.6,0,3.33.14,5.05.27A16.7,16.7,0,0,0,457,929c5.18,0,2.39-6.11,2.92-9.3,4.12-.53,8.11-.4,12.1-.53,2.92-1.06,5.71-2.26,8.5-3.59Z" transform="translate(-139.61 -64.27)"/><path class="cls-1" d="M724.28,954.89c.93-8,7.17-13.42,14-16.74a153.37,153.37,0,0,1,17.55.13c2.79,3.45,5.58,7.44,4.78,12.22-3.46,4.52-9,6.78-12.89,10.9-3.19,4-8.38,5.59-13.29,6-4.66-2.66-8.91-7-10.1-12.5Z" transform="translate(-139.61 -64.27)"/><path class="cls-1" d="M478,932.43c2.12-2.13,4-4.52,6.38-6.38,4.91,0,9.83.27,14.75.4,3.85,1.06,7,4,11.16,4.25,0,.4.14,1.2.14,1.6a16,16,0,0,1,4.78,3.59c2.39,2.39,4.79,4.91,6.11,8.1l-3.19,4c2.26,3.19,5.59,6.25,5.85,10.5a37.88,37.88,0,0,0-6.24,6l-3.59,1.6.13,1.06c-3.46.4-6.25,2.53-8.51,5-3.32.93-6.51,1.86-10,2.53l.26-1.6c-.8-.53-2.39-1.33-3.19-1.73l.4-1.33h-1.06a12.6,12.6,0,0,1-1.33-1.59c-.27-.4-.93-1.2-1.2-1.6a36.12,36.12,0,0,0-4.38-2.39,31.27,31.27,0,0,0-1.86-2.52c-.8,0-2.13-.14-2.93-.14-.53-.66-1.46-2.12-2-2.79l-.4-.13-2.79-2.79-2-5.19a4.6,4.6,0,0,0-.26-5.84c2.66-3.06,3.06-7,2.92-10.9a22.24,22.24,0,0,1,2-1.73Zm12.76,10.23c0,2.93,0,5.85-.14,8.78a34.24,34.24,0,0,0,7.45,4.12,15.85,15.85,0,0,0,8.5-4c-1.06-3.06-1.86-6.25-3.06-9.17a12.53,12.53,0,0,0-12.75.26Z" transform="translate(-139.61 -64.27)"/><path class="cls-1" d="M1409.42,923.26a4.77,4.77,0,0,0,1.33.27,29.88,29.88,0,0,0,8,7.3c-.8.8-1.46,1.73-2.12,2.53.13,1.06.13,2.13.26,3.19a37.67,37.67,0,0,1,4,.4,31.87,31.87,0,0,1,.13,3.45c1.2,1.33,2.26,2.53,3.46,3.73.4.66,1.06,1.86,1.46,2.52a47.13,47.13,0,0,0,1.86,10.37l1.06-.54.4.8c2.93,1.87,2.13,5.05.67,7.71-.4-.13-1.46-.26-1.86-.4a8.09,8.09,0,0,1-2.53,4.79,21.77,21.77,0,0,1-6,3.85l.27.93a25.27,25.27,0,0,1-7,1.33l.4,1.33-1.59-.26v1.19c-3.06.66-6.25,2.66-9.31,1.6-2.92-2-5.18-4.79-7.44-7.58-2.26-.4-5,0-6.38-2.39-2-2.79-3.06-6.11-4.52-9.17,2.92-6-.8-13,2.13-18.74.13-1.33.26-2.53.4-3.86,3.72-2.52,6.11-7.71,11.43-6.38l2-4c2.52,0,5.05,0,7.58.13.66-1.46,1.33-2.79,2-4.12Zm-5.72,23.26c.27.93.67,2.52.93,3.46.67.26,1.73.79,2.4,1.06,1.06,1.86,1.32,4.78,4,5.18.8-3.19.54-6.65.54-9.83-2.66-.93-5.45-1.87-7.85.13Z" transform="translate(-139.61 -64.27)"/></svg>